<?xml version="1.0" encoding="utf-8"?>
<!-- Generator: Adobe Illustrator 23.0.2, SVG Export Plug-In . SVG Version: 6.00 Build 0)  -->
<svg version="1.1" baseProfile="tiny" id="Layer_1" xmlns="http://www.w3.org/2000/svg" xmlns:xlink="http://www.w3.org/1999/xlink"
	 x="0px" y="0px" width="241px" height="57px" viewBox="0 0 241 57" xml:space="preserve">
<path fill="#FFFFFF" stroke="#929497" stroke-width="0.35" stroke-miterlimit="10" d="M223.74,0H63.39h0.19H0.04v29.03
	c0,6.19,4.85,11.28,11.04,11.6l1.61,0.08C14.85,50.04,23.22,57,33.19,57c0.02,0,0.03,0,0.03,0l0.01,0h30.2h-0.28h160.58h-0.49h10.34
	c3.95,0,7.15-3.2,7.15-7.15V7.15c0-3.95-3.2-7.15-7.15-7.15h-10.34"/>
<g>
	<path fill="#5FC323" d="M6.02,5.98V29c0,3.66,2.87,6.61,6.48,6.8c-0.19-9.89,6.82-18.74,16.86-20.51c1.18-0.21,2.37-0.32,3.57-0.32
		c9.93,0,18.38,7.11,20.11,16.89c0.23,1.33,0.32,2.64,0.3,3.94c3.6-0.2,6.47-3.15,6.47-6.8V5.98H6.02z"/>
	<path d="M26.36,35.4c0-3.64,2.95-6.58,6.59-6.58c3.64,0,6.58,2.95,6.58,6.58H26.36z M17.26,35.41c0,8.61,7.01,15.61,15.61,15.61
		c4.18,0,8.11-1.63,11.06-4.6l-3.18-3.16c-2.1,2.12-4.9,3.28-7.88,3.28c-6.14,0-11.12-4.99-11.12-11.12
		c0-6.13,4.98-11.12,11.12-11.12c6.14,0,11.12,4.99,11.12,11.12h4.49c0-8.6-7-15.6-15.6-15.6C24.28,19.8,17.26,26.81,17.26,35.41"/>
</g>
<g>
	<path fill="#004676" d="M83.88,43.9h1.76c1.09,0,1.92,0.33,2.48,1c0.57,0.67,0.85,1.63,0.85,2.88c0,0.62-0.07,1.18-0.21,1.67
		c-0.14,0.49-0.35,0.9-0.63,1.24c-0.28,0.34-0.62,0.6-1.03,0.78s-0.88,0.27-1.41,0.27h-1.81V43.9z M85.57,50.92
		c0.82,0,1.44-0.28,1.85-0.82s0.62-1.32,0.62-2.32s-0.21-1.75-0.62-2.28s-1.03-0.79-1.85-0.79h-0.81v6.21H85.57z"/>
	<path fill="#004676" d="M90.01,48.85c0-0.48,0.07-0.91,0.2-1.28c0.13-0.38,0.31-0.7,0.53-0.96c0.22-0.26,0.47-0.46,0.75-0.6
		c0.28-0.14,0.57-0.21,0.87-0.21c0.33,0,0.62,0.06,0.89,0.19c0.26,0.13,0.48,0.31,0.66,0.55c0.18,0.24,0.31,0.53,0.4,0.86
		c0.09,0.33,0.14,0.71,0.14,1.12c0,0.21-0.01,0.39-0.03,0.54h-3.52c0.04,0.63,0.21,1.13,0.52,1.49c0.31,0.37,0.72,0.55,1.22,0.55
		c0.25,0,0.48-0.04,0.69-0.13c0.21-0.08,0.41-0.19,0.61-0.33l0.31,0.64c-0.23,0.16-0.48,0.3-0.76,0.42
		c-0.28,0.12-0.6,0.18-0.96,0.18c-0.35,0-0.68-0.07-0.98-0.21c-0.3-0.14-0.57-0.34-0.79-0.6c-0.23-0.26-0.4-0.57-0.53-0.95
		C90.08,49.75,90.01,49.32,90.01,48.85z M93.67,48.41c0-0.6-0.11-1.05-0.34-1.37s-0.54-0.47-0.95-0.47c-0.19,0-0.36,0.04-0.53,0.12
		c-0.17,0.08-0.32,0.2-0.46,0.36s-0.25,0.35-0.34,0.57c-0.09,0.23-0.15,0.49-0.18,0.78H93.67z"/>
	<path fill="#004676" d="M95.59,50.42c0.23,0.21,0.46,0.37,0.7,0.5c0.24,0.13,0.52,0.19,0.83,0.19c0.34,0,0.6-0.09,0.77-0.26
		c0.17-0.17,0.26-0.39,0.26-0.64c0-0.15-0.04-0.28-0.11-0.39c-0.07-0.11-0.16-0.21-0.27-0.29c-0.11-0.08-0.24-0.16-0.38-0.22
		c-0.14-0.06-0.29-0.13-0.43-0.19c-0.19-0.07-0.37-0.15-0.56-0.24c-0.19-0.09-0.35-0.2-0.5-0.33c-0.15-0.13-0.27-0.28-0.36-0.46
		c-0.09-0.17-0.14-0.39-0.14-0.63c0-0.23,0.04-0.45,0.12-0.65c0.08-0.2,0.2-0.38,0.35-0.53c0.15-0.15,0.34-0.26,0.56-0.35
		c0.22-0.08,0.47-0.13,0.75-0.13c0.33,0,0.63,0.06,0.91,0.19s0.51,0.28,0.71,0.47l-0.42,0.62c-0.18-0.15-0.37-0.27-0.56-0.37
		c-0.19-0.09-0.4-0.14-0.63-0.14c-0.33,0-0.57,0.08-0.73,0.25c-0.15,0.17-0.23,0.36-0.23,0.59c0,0.13,0.03,0.25,0.1,0.35
		s0.15,0.19,0.26,0.26c0.11,0.08,0.23,0.14,0.37,0.2c0.14,0.06,0.28,0.12,0.44,0.19c0.19,0.08,0.37,0.16,0.56,0.25
		c0.19,0.09,0.36,0.2,0.51,0.33c0.15,0.13,0.27,0.29,0.37,0.48c0.1,0.19,0.15,0.42,0.15,0.69c0,0.24-0.04,0.46-0.12,0.67
		c-0.08,0.21-0.2,0.39-0.37,0.55s-0.36,0.29-0.6,0.38c-0.24,0.09-0.51,0.14-0.82,0.14c-0.37,0-0.73-0.08-1.06-0.23
		c-0.34-0.15-0.63-0.34-0.88-0.57L95.59,50.42z"/>
	<path fill="#004676" d="M99.84,48.85c0-0.48,0.07-0.91,0.2-1.28c0.13-0.38,0.31-0.7,0.53-0.96c0.22-0.26,0.47-0.46,0.75-0.6
		c0.28-0.14,0.57-0.21,0.87-0.21c0.33,0,0.62,0.06,0.89,0.19c0.26,0.13,0.48,0.31,0.66,0.55c0.18,0.24,0.31,0.53,0.4,0.86
		c0.09,0.33,0.14,0.71,0.14,1.12c0,0.21-0.01,0.39-0.03,0.54h-3.52c0.04,0.63,0.21,1.13,0.52,1.49c0.31,0.37,0.72,0.55,1.22,0.55
		c0.25,0,0.48-0.04,0.69-0.13c0.21-0.08,0.41-0.19,0.61-0.33l0.31,0.64c-0.23,0.16-0.48,0.3-0.76,0.42
		c-0.28,0.12-0.6,0.18-0.96,0.18c-0.35,0-0.68-0.07-0.98-0.21c-0.3-0.14-0.57-0.34-0.79-0.6c-0.23-0.26-0.4-0.57-0.53-0.95
		C99.91,49.75,99.84,49.32,99.84,48.85z M103.5,48.41c0-0.6-0.11-1.05-0.34-1.37s-0.54-0.47-0.95-0.47c-0.19,0-0.36,0.04-0.53,0.12
		c-0.17,0.08-0.32,0.2-0.46,0.36s-0.25,0.35-0.34,0.57c-0.09,0.23-0.15,0.49-0.18,0.78H103.5z"/>
	<path fill="#004676" d="M105.56,45.93h0.73l0.08,0.84h0.03c0.25-0.28,0.51-0.51,0.79-0.7c0.28-0.19,0.6-0.28,0.96-0.28
		c0.55,0,0.95,0.19,1.21,0.57s0.38,0.95,0.38,1.7v3.68h-0.88v-3.55c0-0.55-0.08-0.95-0.24-1.19c-0.16-0.24-0.41-0.36-0.75-0.36
		c-0.27,0-0.51,0.08-0.72,0.23c-0.21,0.15-0.44,0.37-0.71,0.67v4.2h-0.88V45.93z"/>
	<path fill="#004676" d="M110.69,45.93h0.91l0.99,3.29c0.08,0.29,0.16,0.57,0.24,0.86c0.08,0.29,0.16,0.57,0.24,0.85h0.04
		c0.08-0.28,0.16-0.56,0.24-0.85c0.08-0.29,0.16-0.57,0.24-0.86l0.99-3.29h0.87l-1.85,5.8h-1.03L110.69,45.93z"/>
	<path fill="#004676" d="M116.03,48.85c0-0.49,0.07-0.92,0.2-1.29c0.13-0.38,0.31-0.7,0.53-0.96c0.22-0.26,0.48-0.46,0.77-0.6
		c0.29-0.13,0.6-0.2,0.92-0.2s0.63,0.07,0.92,0.2c0.29,0.14,0.55,0.33,0.77,0.6s0.4,0.58,0.53,0.96c0.13,0.38,0.2,0.81,0.2,1.29
		c0,0.48-0.07,0.91-0.2,1.28c-0.13,0.38-0.31,0.7-0.53,0.96s-0.48,0.46-0.77,0.59c-0.29,0.13-0.6,0.2-0.92,0.2s-0.63-0.07-0.92-0.2
		c-0.29-0.14-0.55-0.33-0.77-0.59c-0.22-0.26-0.4-0.58-0.53-0.96C116.09,49.75,116.03,49.32,116.03,48.85z M116.94,48.85
		c0,0.33,0.04,0.64,0.11,0.91c0.07,0.27,0.17,0.5,0.31,0.7c0.13,0.19,0.29,0.35,0.48,0.45c0.19,0.11,0.39,0.16,0.61,0.16
		s0.43-0.05,0.61-0.16c0.19-0.11,0.35-0.26,0.48-0.45c0.13-0.2,0.23-0.43,0.31-0.7c0.07-0.27,0.11-0.57,0.11-0.91
		c0-0.33-0.04-0.64-0.11-0.91s-0.17-0.51-0.31-0.71c-0.13-0.2-0.29-0.35-0.48-0.46c-0.19-0.11-0.39-0.16-0.61-0.16
		s-0.43,0.05-0.61,0.16c-0.19,0.11-0.35,0.26-0.48,0.46c-0.13,0.2-0.23,0.44-0.31,0.71S116.94,48.51,116.94,48.85z"/>
	<path fill="#004676" d="M122.24,43.24h0.88v7.4c0,0.16,0.03,0.27,0.08,0.33c0.05,0.06,0.11,0.09,0.17,0.09c0.03,0,0.06,0,0.08,0
		c0.02,0,0.06-0.01,0.11-0.02l0.12,0.74c-0.06,0.03-0.13,0.06-0.2,0.07c-0.08,0.02-0.18,0.02-0.3,0.02c-0.34,0-0.58-0.11-0.72-0.33
		c-0.14-0.22-0.21-0.55-0.21-0.98V43.24z"/>
	<path fill="#004676" d="M124.23,45.93h0.91l0.99,3.29c0.08,0.29,0.16,0.57,0.24,0.86c0.08,0.29,0.16,0.57,0.24,0.85h0.04
		c0.08-0.28,0.16-0.56,0.24-0.85c0.08-0.29,0.16-0.57,0.24-0.86l0.99-3.29h0.87l-1.85,5.8h-1.03L124.23,45.93z"/>
	<path fill="#004676" d="M130.45,44.74c-0.17,0-0.32-0.06-0.44-0.18s-0.18-0.27-0.18-0.45c0-0.19,0.06-0.34,0.18-0.46
		c0.12-0.12,0.26-0.17,0.44-0.17s0.32,0.06,0.44,0.17c0.12,0.12,0.18,0.27,0.18,0.46c0,0.18-0.06,0.33-0.18,0.45
		S130.62,44.74,130.45,44.74z M130,45.93h0.88v5.8H130V45.93z"/>
	<path fill="#004676" d="M132.27,48.85c0-0.47,0.06-0.89,0.19-1.27c0.12-0.38,0.29-0.7,0.5-0.96c0.21-0.26,0.45-0.47,0.72-0.61
		c0.27-0.14,0.56-0.21,0.86-0.21s0.56,0.06,0.78,0.18c0.22,0.12,0.45,0.28,0.68,0.49l-0.04-0.99v-2.23h0.89v8.5h-0.73l-0.08-0.68
		h-0.03c-0.21,0.22-0.45,0.42-0.71,0.58s-0.56,0.25-0.87,0.25c-0.66,0-1.18-0.26-1.57-0.79C132.46,50.57,132.27,49.82,132.27,48.85z
		 M133.18,48.83c0,0.7,0.13,1.25,0.38,1.64c0.25,0.39,0.6,0.58,1.06,0.58c0.24,0,0.47-0.07,0.69-0.2c0.21-0.13,0.43-0.33,0.65-0.6
		v-3.03c-0.22-0.22-0.44-0.38-0.64-0.47c-0.2-0.09-0.41-0.14-0.63-0.14c-0.21,0-0.4,0.05-0.59,0.16s-0.34,0.26-0.48,0.45
		c-0.14,0.2-0.24,0.43-0.32,0.7C133.22,48.2,133.18,48.5,133.18,48.83z"/>
	<path fill="#004676" d="M138.22,48.85c0-0.49,0.07-0.92,0.2-1.29c0.13-0.38,0.31-0.7,0.53-0.96c0.22-0.26,0.48-0.46,0.77-0.6
		c0.29-0.13,0.6-0.2,0.92-0.2s0.63,0.07,0.92,0.2c0.29,0.14,0.55,0.33,0.77,0.6c0.22,0.26,0.4,0.58,0.53,0.96
		c0.13,0.38,0.2,0.81,0.2,1.29c0,0.48-0.07,0.91-0.2,1.28c-0.13,0.38-0.31,0.7-0.53,0.96c-0.22,0.26-0.48,0.46-0.77,0.59
		c-0.29,0.13-0.6,0.2-0.92,0.2s-0.63-0.07-0.92-0.2c-0.29-0.14-0.55-0.33-0.77-0.59c-0.22-0.26-0.4-0.58-0.53-0.96
		C138.29,49.75,138.22,49.32,138.22,48.85z M139.13,48.85c0,0.33,0.04,0.64,0.11,0.91c0.07,0.27,0.17,0.5,0.31,0.7
		c0.13,0.19,0.29,0.35,0.48,0.45s0.39,0.16,0.61,0.16s0.43-0.05,0.61-0.16s0.35-0.26,0.48-0.45c0.13-0.2,0.23-0.43,0.31-0.7
		c0.07-0.27,0.11-0.57,0.11-0.91c0-0.33-0.04-0.64-0.11-0.91c-0.07-0.27-0.17-0.51-0.31-0.71c-0.13-0.2-0.29-0.35-0.48-0.46
		s-0.39-0.16-0.61-0.16s-0.43,0.05-0.61,0.16s-0.35,0.26-0.48,0.46c-0.13,0.2-0.23,0.44-0.31,0.71
		C139.17,48.21,139.13,48.51,139.13,48.85z"/>
	<path fill="#004676" d="M147.48,52.23v1.96h-0.88v-8.25h0.73l0.08,0.67h0.03c0.24-0.22,0.5-0.41,0.78-0.57
		c0.28-0.16,0.58-0.24,0.89-0.24c0.34,0,0.63,0.07,0.89,0.21c0.26,0.14,0.47,0.34,0.64,0.6c0.17,0.26,0.3,0.57,0.39,0.93
		c0.09,0.36,0.13,0.77,0.13,1.22c0,0.49-0.06,0.93-0.18,1.32c-0.12,0.39-0.29,0.71-0.49,0.99c-0.21,0.27-0.45,0.48-0.72,0.62
		c-0.27,0.14-0.56,0.21-0.86,0.21c-0.24,0-0.49-0.06-0.73-0.18c-0.24-0.12-0.48-0.28-0.72-0.49L147.48,52.23z M147.48,50.45
		c0.24,0.22,0.46,0.38,0.69,0.47c0.22,0.09,0.42,0.14,0.59,0.14c0.21,0,0.41-0.05,0.6-0.16s0.34-0.26,0.47-0.45
		c0.13-0.19,0.24-0.44,0.31-0.72c0.08-0.29,0.11-0.61,0.11-0.97c0-0.32-0.03-0.61-0.08-0.87c-0.05-0.26-0.13-0.49-0.24-0.67
		c-0.11-0.19-0.25-0.33-0.43-0.44s-0.39-0.16-0.63-0.16c-0.22,0-0.45,0.07-0.67,0.2c-0.23,0.13-0.47,0.33-0.72,0.58V50.45z"/>
	<path fill="#004676" d="M152.18,48.85c0-0.48,0.07-0.91,0.2-1.28c0.13-0.38,0.31-0.7,0.53-0.96s0.47-0.46,0.75-0.6
		c0.28-0.14,0.57-0.21,0.87-0.21c0.33,0,0.62,0.06,0.89,0.19s0.48,0.31,0.66,0.55c0.18,0.24,0.31,0.53,0.4,0.86
		c0.09,0.33,0.14,0.71,0.14,1.12c0,0.21-0.01,0.39-0.03,0.54h-3.53c0.04,0.63,0.21,1.13,0.52,1.49c0.31,0.37,0.72,0.55,1.22,0.55
		c0.25,0,0.48-0.04,0.69-0.13c0.21-0.08,0.41-0.19,0.61-0.33l0.31,0.64c-0.23,0.16-0.48,0.3-0.76,0.42
		c-0.28,0.12-0.6,0.18-0.96,0.18c-0.35,0-0.68-0.07-0.98-0.21c-0.3-0.14-0.57-0.34-0.79-0.6c-0.23-0.26-0.4-0.57-0.53-0.95
		C152.24,49.75,152.18,49.32,152.18,48.85z M155.83,48.41c0-0.6-0.11-1.05-0.34-1.37s-0.54-0.47-0.95-0.47
		c-0.19,0-0.36,0.04-0.53,0.12c-0.17,0.08-0.32,0.2-0.46,0.36c-0.14,0.16-0.25,0.35-0.34,0.57s-0.15,0.49-0.18,0.78H155.83z"/>
	<path fill="#004676" d="M157.89,43.24h0.88v7.4c0,0.16,0.02,0.27,0.08,0.33c0.05,0.06,0.11,0.09,0.17,0.09c0.03,0,0.05,0,0.08,0
		s0.06-0.01,0.11-0.02l0.12,0.74c-0.06,0.03-0.13,0.06-0.2,0.07c-0.08,0.02-0.18,0.02-0.3,0.02c-0.34,0-0.58-0.11-0.72-0.33
		c-0.14-0.22-0.21-0.55-0.21-0.98V43.24z"/>
	<path fill="#004676" d="M160.38,50.23c0-0.64,0.26-1.12,0.77-1.46c0.51-0.34,1.33-0.58,2.44-0.71c0-0.18-0.02-0.36-0.05-0.54
		s-0.09-0.33-0.17-0.47c-0.08-0.13-0.19-0.24-0.33-0.33s-0.31-0.12-0.53-0.12c-0.31,0-0.59,0.06-0.85,0.19
		c-0.26,0.13-0.5,0.27-0.7,0.43l-0.35-0.68c0.24-0.17,0.54-0.34,0.89-0.51c0.35-0.16,0.74-0.25,1.16-0.25c0.64,0,1.1,0.22,1.39,0.65
		c0.29,0.43,0.43,1.01,0.43,1.74v3.56h-0.73l-0.08-0.69h-0.02c-0.25,0.23-0.52,0.43-0.81,0.59s-0.6,0.25-0.92,0.25
		c-0.44,0-0.81-0.14-1.1-0.43C160.52,51.16,160.38,50.76,160.38,50.23z M161.25,50.16c0,0.33,0.09,0.57,0.26,0.72
		c0.18,0.14,0.39,0.21,0.65,0.21c0.25,0,0.49-0.07,0.71-0.2c0.23-0.13,0.46-0.32,0.71-0.58V48.7c-0.44,0.06-0.81,0.14-1.11,0.23
		s-0.54,0.19-0.73,0.31c-0.18,0.12-0.31,0.26-0.39,0.41C161.29,49.81,161.25,49.98,161.25,50.16z"/>
</g>
<g>
	<g>
		<path d="M116.92,8.66v10.76h-2.97V8.66h-4.11V5.92h11.18v2.74H116.92z"/>
		<path d="M130.72,19.42l-2.89-4.32h-2.33v4.32h-2.97V5.92h6.16c3.19,0,5.09,1.68,5.09,4.45v0.04c0,2.18-1.17,3.55-2.89,4.18
			l3.3,4.82H130.72z M130.78,10.53c0-1.27-0.89-1.93-2.33-1.93h-2.95v3.88h3c1.45,0,2.28-0.77,2.28-1.91V10.53z"/>
		<path d="M141.71,19.63c-3.63,0-5.84-2.02-5.84-6V5.92h2.97v7.63c0,2.2,1.1,3.33,2.91,3.33c1.81,0,2.91-1.1,2.91-3.24V5.92h2.97
			v7.61C147.62,17.62,145.33,19.63,141.71,19.63z"/>
		<path d="M155.07,19.61c-2.05,0-4.11-0.71-5.73-2.16l1.75-2.1c1.21,1,2.49,1.64,4.03,1.64c1.21,0,1.95-0.48,1.95-1.27v-0.04
			c0-0.75-0.46-1.14-2.72-1.71c-2.72-0.69-4.47-1.45-4.47-4.13V9.8c0-2.45,1.96-4.07,4.72-4.07c1.97,0,3.64,0.62,5.01,1.72
			l-1.54,2.23c-1.19-0.83-2.37-1.33-3.51-1.33c-1.13,0-1.73,0.52-1.73,1.18v0.04c0,0.89,0.58,1.18,2.91,1.77
			c2.73,0.71,4.27,1.7,4.27,4.05v0.04C160.01,18.11,157.97,19.61,155.07,19.61z"/>
		<path d="M167.56,8.66v10.76h-2.97V8.66h-4.11V5.92h11.18v2.74H167.56z"/>
		<path d="M180.91,15.27h-7.19c0.29,1.33,1.22,2.02,2.53,2.02c0.98,0,1.7-0.31,2.51-1.06l1.67,1.48c-0.96,1.2-2.35,1.93-4.22,1.93
			c-3.1,0-5.4-2.18-5.4-5.34v-0.04c0-2.95,2.1-5.38,5.1-5.38c3.45,0,5.03,2.68,5.03,5.61v0.04C180.95,14.83,180.93,15,180.91,15.27z
			 M175.91,11.24c-1.2,0-2,0.87-2.23,2.2h4.41C177.92,12.13,177.15,11.24,175.91,11.24z"/>
	</g>
</g>
<g>
	<path fill="#004676" d="M171.68,45.25h-2.53v-1.26h6.5v1.26h-2.53v6.41h-1.45V45.25z M177.01,51.66v-4.25
		c0.24-0.14,0.61-0.22,1.04-0.22c0.29,0,0.57,0.03,0.84,0.11l0.35-1.14c-0.35-0.13-0.75-0.18-1.23-0.18c-1.06,0-1.91,0.42-2.33,0.79
		v4.89H177.01z M183.92,46.16v4.26c-0.34,0.14-0.71,0.21-1.15,0.21c-1.12,0-1.36-0.51-1.36-1.42v-3.06h-1.35v3.45
		c0,1.36,0.78,2.22,2.53,2.22c1.24,0,2.1-0.32,2.67-0.59v-5.08H183.92z M186.39,50.97c0,0,0.78,0.82,2.16,0.82
		c1.32,0,2.13-0.74,2.13-1.67c0-1.79-2.71-1.7-2.71-2.48c0-0.35,0.35-0.5,0.71-0.5c0.85,0,1.37,0.48,1.37,0.48l0.51-1.03
		c0,0-0.61-0.63-1.87-0.63c-1.2,0-2.13,0.6-2.13,1.64c0,1.79,2.71,1.68,2.71,2.52c0,0.33-0.34,0.5-0.73,0.5
		c-0.91,0-1.52-0.61-1.52-0.61L186.39,50.97z M191.85,49.61c0,1.87,1.54,2.1,2.32,2.1c0.26,0,0.43-0.03,0.43-0.03v-1.21
		c0,0-0.1,0.02-0.25,0.02c-0.38,0-1.1-0.13-1.1-1.05v-2.08h1.27v-1.19h-1.27v-1.61h-1.36L191.85,49.61z M204.26,51.66v-4.25
		c0.24-0.14,0.61-0.22,1.04-0.22c0.29,0,0.57,0.03,0.84,0.11l0.35-1.14c-0.35-0.13-0.75-0.18-1.23-0.18c-1.06,0-1.91,0.42-2.33,0.79
		v4.89H204.26z M209.61,46.05c-1.8,0-2.95,1.3-2.95,2.85c0,1.58,1.15,2.85,2.95,2.85c1.46,0,2.24-0.89,2.24-0.89l-0.52-0.96
		c0,0-0.68,0.69-1.6,0.69c-1.03,0-1.69-0.79-1.69-1.71c0-0.93,0.65-1.68,1.65-1.68c0.85,0,1.42,0.59,1.42,0.59l0.6-0.93
		C211.7,46.86,211.03,46.05,209.61,46.05 M200.03,49.67h-2.54l-0.68,1.95h-1.42l2.66-7.57h1.42l2.66,7.57h-1.42L200.03,49.67z
		 M199.63,48.55l-0.88-2.49l-0.88,2.49H199.63z"/>
</g>
<line fill="none" stroke="#231F20" stroke-width="0.5" stroke-miterlimit="10" x1="65.12" y1="40.24" x2="227.44" y2="40.24"/>
<g>
	<path d="M77.72,25.5h3.02c0.54,0,1.04,0.05,1.48,0.15c0.45,0.1,0.83,0.26,1.15,0.49c0.32,0.22,0.56,0.52,0.74,0.89
		s0.26,0.82,0.26,1.36c0,0.52-0.09,0.97-0.26,1.35s-0.42,0.7-0.74,0.94c-0.32,0.25-0.7,0.44-1.15,0.56
		c-0.45,0.13-0.94,0.19-1.48,0.19h-1.77v3.9h-1.25V25.5z M80.58,30.42c0.86,0,1.5-0.16,1.91-0.49c0.41-0.33,0.62-0.84,0.62-1.54
		c0-0.71-0.21-1.2-0.63-1.48c-0.42-0.27-1.06-0.41-1.91-0.41h-1.62v3.92H80.58z"/>
	<path d="M86.24,28.05h1.02l0.11,1.32h0.04c0.25-0.46,0.55-0.83,0.91-1.1c0.35-0.27,0.74-0.4,1.16-0.4c0.29,0,0.55,0.05,0.78,0.15
		l-0.24,1.08c-0.12-0.04-0.23-0.07-0.33-0.09c-0.1-0.02-0.22-0.03-0.38-0.03c-0.31,0-0.63,0.13-0.97,0.38
		c-0.34,0.25-0.63,0.69-0.88,1.31v4.68h-1.23V28.05z"/>
	<path d="M92.07,26.55c-0.24,0-0.44-0.08-0.61-0.22c-0.17-0.15-0.25-0.34-0.25-0.57c0-0.24,0.08-0.43,0.25-0.58
		c0.17-0.15,0.37-0.22,0.61-0.22c0.24,0,0.44,0.07,0.61,0.22c0.17,0.14,0.25,0.34,0.25,0.58c0,0.23-0.08,0.42-0.25,0.57
		C92.52,26.48,92.31,26.55,92.07,26.55z M91.44,28.05h1.23v7.29h-1.23V28.05z"/>
	<path d="M94.08,28.05h1.28l1.38,4.14c0.11,0.36,0.22,0.72,0.34,1.08c0.11,0.36,0.23,0.72,0.34,1.07h0.06
		c0.11-0.35,0.22-0.71,0.33-1.07c0.11-0.36,0.22-0.72,0.33-1.08l1.38-4.14h1.21l-2.58,7.29h-1.44L94.08,28.05z"/>
	<path d="M101.48,33.46c0-0.8,0.36-1.41,1.07-1.84s1.85-0.72,3.41-0.89c0-0.23-0.02-0.46-0.07-0.67s-0.12-0.42-0.24-0.58
		c-0.12-0.17-0.27-0.31-0.46-0.41c-0.19-0.1-0.43-0.16-0.73-0.16c-0.43,0-0.83,0.08-1.19,0.24s-0.69,0.34-0.98,0.54l-0.5-0.86
		c0.34-0.22,0.75-0.43,1.25-0.64s1.03-0.31,1.62-0.31c0.89,0,1.54,0.27,1.94,0.82c0.4,0.54,0.6,1.27,0.6,2.18v4.47h-1.02l-0.11-0.87
		h-0.03c-0.35,0.29-0.73,0.54-1.13,0.74c-0.41,0.21-0.83,0.31-1.28,0.31c-0.62,0-1.13-0.18-1.54-0.54
		C101.68,34.62,101.48,34.11,101.48,33.46z M102.69,33.36c0,0.42,0.12,0.72,0.37,0.9s0.55,0.27,0.91,0.27c0.35,0,0.68-0.08,1-0.25
		c0.32-0.17,0.65-0.41,1-0.73v-2.02c-0.61,0.08-1.12,0.17-1.55,0.28c-0.42,0.11-0.76,0.24-1.01,0.39c-0.25,0.15-0.44,0.32-0.55,0.52
		C102.75,32.92,102.69,33.13,102.69,33.36z"/>
	<path d="M108.98,31.71c0-0.61,0.09-1.15,0.28-1.63c0.19-0.47,0.45-0.88,0.77-1.21c0.32-0.33,0.69-0.58,1.12-0.75
		s0.87-0.25,1.34-0.25c0.48,0,0.89,0.09,1.24,0.26c0.34,0.17,0.64,0.38,0.89,0.61L114,29.54c-0.22-0.19-0.45-0.35-0.68-0.46
		c-0.23-0.12-0.5-0.18-0.79-0.18c-0.33,0-0.64,0.07-0.92,0.2c-0.28,0.13-0.52,0.33-0.72,0.58c-0.2,0.25-0.36,0.55-0.47,0.89
		c-0.12,0.34-0.17,0.73-0.17,1.15s0.05,0.8,0.17,1.14s0.26,0.63,0.46,0.88c0.19,0.25,0.43,0.43,0.71,0.57
		c0.28,0.14,0.58,0.2,0.92,0.2c0.35,0,0.67-0.07,0.95-0.22c0.28-0.14,0.54-0.32,0.76-0.52l0.56,0.81c-0.33,0.29-0.7,0.52-1.1,0.69
		c-0.41,0.17-0.83,0.25-1.27,0.25c-0.48,0-0.93-0.08-1.35-0.25s-0.78-0.42-1.09-0.74c-0.31-0.33-0.55-0.72-0.72-1.2
		C109.06,32.85,108.98,32.31,108.98,31.71z"/>
	<path d="M116.99,26.55c-0.24,0-0.44-0.08-0.61-0.22c-0.17-0.15-0.25-0.34-0.25-0.57c0-0.24,0.08-0.43,0.25-0.58
		c0.17-0.15,0.37-0.22,0.61-0.22c0.24,0,0.44,0.07,0.61,0.22c0.17,0.14,0.25,0.34,0.25,0.58c0,0.23-0.08,0.42-0.25,0.57
		C117.43,26.48,117.23,26.55,116.99,26.55z M116.36,28.05h1.23v7.29h-1.23V28.05z"/>
	<path d="M119.52,31.71c0-0.59,0.09-1.12,0.26-1.6c0.17-0.47,0.41-0.88,0.7-1.21c0.29-0.33,0.62-0.58,1-0.77
		c0.38-0.18,0.78-0.27,1.2-0.27s0.79,0.08,1.09,0.22c0.31,0.15,0.62,0.36,0.95,0.62l-0.06-1.25v-2.8h1.25v10.68h-1.02l-0.11-0.86
		h-0.04c-0.29,0.28-0.62,0.52-1,0.73c-0.38,0.21-0.78,0.31-1.21,0.31c-0.92,0-1.65-0.33-2.2-0.99
		C119.79,33.88,119.52,32.93,119.52,31.71z M120.8,31.7c0,0.88,0.17,1.56,0.52,2.05s0.84,0.73,1.49,0.73c0.34,0,0.66-0.08,0.96-0.25
		s0.6-0.42,0.9-0.76v-3.81c-0.31-0.28-0.61-0.48-0.89-0.59c-0.28-0.11-0.58-0.17-0.88-0.17c-0.29,0-0.56,0.07-0.82,0.2
		s-0.48,0.33-0.67,0.57c-0.19,0.25-0.34,0.54-0.45,0.88C120.85,30.9,120.8,31.28,120.8,31.7z"/>
	<path d="M128.01,33.46c0-0.8,0.36-1.41,1.07-1.84s1.85-0.72,3.41-0.89c0-0.23-0.02-0.46-0.07-0.67s-0.12-0.42-0.24-0.58
		c-0.12-0.17-0.27-0.31-0.46-0.41c-0.19-0.1-0.43-0.16-0.73-0.16c-0.43,0-0.83,0.08-1.19,0.24s-0.69,0.34-0.98,0.54l-0.5-0.86
		c0.34-0.22,0.75-0.43,1.25-0.64s1.03-0.31,1.62-0.31c0.89,0,1.54,0.27,1.94,0.82c0.4,0.54,0.6,1.27,0.6,2.18v4.47h-1.02l-0.11-0.87
		h-0.03c-0.35,0.29-0.73,0.54-1.13,0.74c-0.41,0.21-0.83,0.31-1.28,0.31c-0.62,0-1.13-0.18-1.54-0.54
		C128.21,34.62,128.01,34.11,128.01,33.46z M129.23,33.36c0,0.42,0.12,0.72,0.37,0.9s0.55,0.27,0.91,0.27c0.35,0,0.68-0.08,1-0.25
		c0.32-0.17,0.65-0.41,1-0.73v-2.02c-0.61,0.08-1.12,0.17-1.55,0.28c-0.42,0.11-0.76,0.24-1.01,0.39c-0.25,0.15-0.44,0.32-0.55,0.52
		C129.28,32.92,129.23,33.13,129.23,33.36z"/>
	<path d="M135.53,31.71c0-0.59,0.09-1.12,0.26-1.6c0.17-0.47,0.41-0.88,0.7-1.21c0.29-0.33,0.62-0.58,1-0.77
		c0.38-0.18,0.78-0.27,1.2-0.27s0.79,0.08,1.09,0.22c0.31,0.15,0.62,0.36,0.95,0.62l-0.06-1.25v-2.8h1.25v10.68h-1.02l-0.11-0.86
		h-0.04c-0.29,0.28-0.62,0.52-1,0.73c-0.38,0.21-0.78,0.31-1.21,0.31c-0.92,0-1.65-0.33-2.2-0.99
		C135.8,33.88,135.53,32.93,135.53,31.71z M136.8,31.7c0,0.88,0.17,1.56,0.52,2.05s0.84,0.73,1.49,0.73c0.34,0,0.66-0.08,0.96-0.25
		s0.6-0.42,0.9-0.76v-3.81c-0.31-0.28-0.61-0.48-0.89-0.59c-0.28-0.11-0.58-0.17-0.88-0.17c-0.29,0-0.56,0.07-0.82,0.2
		s-0.48,0.33-0.67,0.57c-0.19,0.25-0.34,0.54-0.45,0.88C136.86,30.9,136.8,31.28,136.8,31.7z"/>
	<path d="M143.84,31.71c0-0.6,0.09-1.14,0.28-1.61c0.18-0.48,0.43-0.88,0.73-1.21c0.31-0.33,0.65-0.58,1.04-0.76
		c0.39-0.18,0.79-0.26,1.21-0.26c0.46,0,0.87,0.08,1.24,0.24c0.37,0.16,0.67,0.39,0.92,0.69s0.43,0.66,0.56,1.08s0.2,0.89,0.2,1.41
		c0,0.27-0.01,0.5-0.04,0.67h-4.92c0.05,0.79,0.29,1.42,0.73,1.88c0.43,0.46,1,0.69,1.7,0.69c0.35,0,0.67-0.05,0.97-0.16
		c0.29-0.1,0.58-0.24,0.85-0.41l0.43,0.81c-0.32,0.2-0.67,0.38-1.07,0.53c-0.39,0.15-0.83,0.22-1.33,0.22
		c-0.49,0-0.95-0.09-1.37-0.26c-0.42-0.18-0.79-0.43-1.11-0.75c-0.31-0.33-0.56-0.72-0.74-1.19
		C143.93,32.85,143.84,32.31,143.84,31.71z M148.94,31.16c0-0.75-0.16-1.32-0.47-1.72c-0.31-0.4-0.76-0.59-1.33-0.59
		c-0.26,0-0.51,0.05-0.74,0.16c-0.23,0.11-0.45,0.26-0.64,0.45c-0.19,0.2-0.35,0.44-0.47,0.72c-0.12,0.29-0.21,0.61-0.25,0.98
		H148.94z"/>
	<path d="M153.62,25.5h1.33l1.58,5.31c0.18,0.59,0.34,1.14,0.47,1.64c0.13,0.5,0.3,1.04,0.49,1.62h0.06
		c0.18-0.58,0.34-1.12,0.48-1.62c0.14-0.5,0.29-1.04,0.46-1.64l1.58-5.31h1.27l-3.12,9.84h-1.46L153.62,25.5z"/>
	<path d="M161.81,31.71c0-0.6,0.09-1.14,0.28-1.61c0.18-0.48,0.43-0.88,0.73-1.21c0.31-0.33,0.65-0.58,1.04-0.76
		c0.39-0.18,0.79-0.26,1.21-0.26c0.46,0,0.87,0.08,1.24,0.24c0.37,0.16,0.67,0.39,0.92,0.69s0.43,0.66,0.56,1.08s0.2,0.89,0.2,1.41
		c0,0.27-0.01,0.5-0.04,0.67h-4.92c0.05,0.79,0.29,1.42,0.73,1.88c0.44,0.46,1,0.69,1.7,0.69c0.35,0,0.67-0.05,0.97-0.16
		c0.29-0.1,0.58-0.24,0.85-0.41l0.43,0.81c-0.32,0.2-0.67,0.38-1.07,0.53c-0.39,0.15-0.83,0.22-1.33,0.22
		c-0.49,0-0.95-0.09-1.37-0.26c-0.43-0.18-0.8-0.43-1.11-0.75c-0.31-0.33-0.56-0.72-0.74-1.19
		C161.9,32.85,161.81,32.31,161.81,31.71z M166.91,31.16c0-0.75-0.16-1.32-0.47-1.72c-0.31-0.4-0.76-0.59-1.33-0.59
		c-0.26,0-0.51,0.05-0.74,0.16c-0.23,0.11-0.45,0.26-0.64,0.45c-0.19,0.2-0.35,0.44-0.47,0.72c-0.12,0.29-0.21,0.61-0.25,0.98
		H166.91z"/>
	<path d="M169.79,28.05h1.02l0.11,1.32h0.04c0.25-0.46,0.55-0.83,0.91-1.1c0.35-0.27,0.74-0.4,1.16-0.4c0.29,0,0.55,0.05,0.78,0.15
		l-0.24,1.08c-0.12-0.04-0.23-0.07-0.33-0.09c-0.1-0.02-0.22-0.03-0.38-0.03c-0.31,0-0.63,0.13-0.97,0.38
		c-0.34,0.25-0.63,0.69-0.88,1.31v4.68h-1.23V28.05z"/>
	<path d="M175.62,26.55c-0.24,0-0.44-0.08-0.61-0.22c-0.17-0.15-0.25-0.34-0.25-0.57c0-0.24,0.08-0.43,0.25-0.58
		c0.17-0.15,0.37-0.22,0.61-0.22c0.24,0,0.44,0.07,0.61,0.22c0.17,0.14,0.25,0.34,0.25,0.58c0,0.23-0.08,0.42-0.25,0.57
		C176.06,26.48,175.86,26.55,175.62,26.55z M174.99,28.05h1.23v7.29h-1.23V28.05z"/>
	<path d="M181.97,25.67c-0.27-0.12-0.54-0.18-0.82-0.18c-0.68,0-1.02,0.47-1.02,1.41v1.16h1.54v1h-1.54v6.29h-1.23v-6.29h-0.99
		v-0.93l0.99-0.08V26.9c0-0.75,0.17-1.34,0.52-1.77c0.35-0.43,0.88-0.65,1.61-0.65c0.23,0,0.45,0.02,0.65,0.07
		c0.21,0.05,0.39,0.1,0.56,0.17L181.97,25.67z"/>
	<path d="M183.69,26.55c-0.24,0-0.44-0.08-0.61-0.22c-0.17-0.15-0.25-0.34-0.25-0.57c0-0.24,0.08-0.43,0.25-0.58
		c0.17-0.15,0.37-0.22,0.61-0.22c0.24,0,0.44,0.07,0.61,0.22c0.17,0.14,0.25,0.34,0.25,0.58c0,0.23-0.08,0.42-0.25,0.57
		C184.13,26.48,183.93,26.55,183.69,26.55z M183.06,28.05h1.23v7.29h-1.23V28.05z"/>
	<path d="M186.21,31.71c0-0.61,0.09-1.15,0.28-1.63c0.19-0.47,0.45-0.88,0.77-1.21c0.32-0.33,0.69-0.58,1.12-0.75
		s0.87-0.25,1.34-0.25c0.48,0,0.89,0.09,1.24,0.26c0.34,0.17,0.64,0.38,0.89,0.61l-0.62,0.79c-0.22-0.19-0.45-0.35-0.68-0.46
		c-0.23-0.12-0.5-0.18-0.79-0.18c-0.33,0-0.64,0.07-0.92,0.2c-0.28,0.13-0.52,0.33-0.72,0.58c-0.2,0.25-0.36,0.55-0.47,0.89
		c-0.12,0.34-0.17,0.73-0.17,1.15s0.05,0.8,0.17,1.14s0.26,0.63,0.46,0.88c0.19,0.25,0.43,0.43,0.71,0.57
		c0.28,0.14,0.58,0.2,0.92,0.2c0.35,0,0.67-0.07,0.95-0.22c0.28-0.14,0.54-0.32,0.76-0.52l0.56,0.81c-0.33,0.29-0.7,0.52-1.1,0.69
		c-0.41,0.17-0.83,0.25-1.27,0.25c-0.48,0-0.93-0.08-1.35-0.25s-0.78-0.42-1.09-0.74c-0.31-0.33-0.55-0.72-0.72-1.2
		C186.3,32.85,186.21,32.31,186.21,31.71z"/>
	<path d="M193.08,33.46c0-0.8,0.36-1.41,1.07-1.84s1.85-0.72,3.41-0.89c0-0.23-0.02-0.46-0.07-0.67s-0.12-0.42-0.24-0.58
		c-0.12-0.17-0.27-0.31-0.46-0.41c-0.19-0.1-0.43-0.16-0.73-0.16c-0.43,0-0.83,0.08-1.19,0.24s-0.69,0.34-0.98,0.54l-0.5-0.86
		c0.34-0.22,0.75-0.43,1.25-0.64s1.03-0.31,1.62-0.31c0.89,0,1.54,0.27,1.94,0.82c0.4,0.54,0.6,1.27,0.6,2.18v4.47h-1.02l-0.11-0.87
		h-0.03c-0.35,0.29-0.73,0.54-1.13,0.74c-0.41,0.21-0.83,0.31-1.28,0.31c-0.62,0-1.13-0.18-1.54-0.54
		C193.28,34.62,193.08,34.11,193.08,33.46z M194.29,33.36c0,0.42,0.12,0.72,0.37,0.9s0.55,0.27,0.91,0.27c0.35,0,0.68-0.08,1-0.25
		c0.32-0.17,0.65-0.41,1-0.73v-2.02c-0.61,0.08-1.12,0.17-1.55,0.28c-0.42,0.11-0.76,0.24-1.01,0.39c-0.25,0.15-0.44,0.32-0.55,0.52
		C194.35,32.92,194.29,33.13,194.29,33.36z"/>
	<path d="M200.59,31.71c0-0.59,0.09-1.12,0.26-1.6c0.17-0.47,0.41-0.88,0.7-1.21c0.29-0.33,0.62-0.58,1-0.77
		c0.38-0.18,0.78-0.27,1.2-0.27s0.79,0.08,1.09,0.22c0.31,0.15,0.62,0.36,0.95,0.62l-0.06-1.25v-2.8h1.25v10.68h-1.02l-0.11-0.86
		h-0.04c-0.29,0.28-0.62,0.52-1,0.73c-0.38,0.21-0.78,0.31-1.21,0.31c-0.92,0-1.65-0.33-2.2-0.99
		C200.87,33.88,200.59,32.93,200.59,31.71z M201.87,31.7c0,0.88,0.17,1.56,0.52,2.05s0.84,0.73,1.49,0.73
		c0.34,0,0.66-0.08,0.96-0.25s0.6-0.42,0.9-0.76v-3.81c-0.31-0.28-0.61-0.48-0.89-0.59c-0.28-0.11-0.58-0.17-0.88-0.17
		c-0.29,0-0.56,0.07-0.82,0.2s-0.48,0.33-0.67,0.57c-0.19,0.25-0.34,0.54-0.45,0.88C201.92,30.9,201.87,31.28,201.87,31.7z"/>
	<path d="M209.08,33.46c0-0.8,0.36-1.41,1.07-1.84s1.85-0.72,3.41-0.89c0-0.23-0.02-0.46-0.07-0.67s-0.12-0.42-0.24-0.58
		c-0.12-0.17-0.27-0.31-0.46-0.41c-0.19-0.1-0.43-0.16-0.73-0.16c-0.43,0-0.83,0.08-1.19,0.24s-0.69,0.34-0.98,0.54l-0.5-0.86
		c0.34-0.22,0.75-0.43,1.25-0.64s1.03-0.31,1.62-0.31c0.89,0,1.54,0.27,1.94,0.82c0.4,0.54,0.6,1.27,0.6,2.18v4.47h-1.02l-0.11-0.87
		h-0.03c-0.35,0.29-0.73,0.54-1.13,0.74c-0.41,0.21-0.83,0.31-1.28,0.31c-0.62,0-1.13-0.18-1.54-0.54
		C209.29,34.62,209.08,34.11,209.08,33.46z M210.3,33.36c0,0.42,0.12,0.72,0.37,0.9s0.55,0.27,0.91,0.27c0.35,0,0.68-0.08,1-0.25
		c0.32-0.17,0.65-0.41,1-0.73v-2.02c-0.61,0.08-1.12,0.17-1.55,0.28c-0.42,0.11-0.76,0.24-1.01,0.39c-0.25,0.15-0.44,0.32-0.55,0.52
		C210.35,32.92,210.3,33.13,210.3,33.36z"/>
</g>
<g>
</g>
<g>
</g>
<g>
</g>
<g>
</g>
<g>
</g>
<g>
</g>
</svg>
