<svg xmlns="http://www.w3.org/2000/svg" version="1.1" xmlns:xlink="http://www.w3.org/1999/xlink" xmlns:svgjs="http://svgjs.com/svgjs" width="1000" height="560" preserveAspectRatio="none" viewBox="0 0 1000 560"><g mask="url(&quot;#SvgjsMask1331&quot;)" fill="none"><rect width="1000" height="560" x="0" y="0" fill="rgba(108, 99, 255, 1)"></rect><use xlink:href="#SvgjsG1333" transform="translate(0, 0)" fill="rgba(186, 186, 227, 1)"></use><use xlink:href="#SvgjsG1333" transform="translate(0, 483.00000000000006)" fill="rgba(186, 186, 227, 1)"></use><use xlink:href="#SvgjsG1333" transform="translate(483.00000000000006, 0)" fill="rgba(186, 186, 227, 1)"></use><use xlink:href="#SvgjsG1333" transform="translate(483.00000000000006, 483.00000000000006)" fill="rgba(186, 186, 227, 1)"></use><use xlink:href="#SvgjsG1333" transform="translate(966.0000000000001, 0)" fill="rgba(186, 186, 227, 1)"></use><use xlink:href="#SvgjsG1333" transform="translate(966.0000000000001, 483.00000000000006)" fill="rgba(186, 186, 227, 1)"></use></g><defs><mask id="SvgjsMask1331"><rect width="1000" height="560" fill="#ffffff"></rect></mask><g id="SvgjsG1332"><path d="M5.68 12.07S5.31 10.25 2.85 9.2C0.59 8.24-0.86 8.4-0.86 8.4L3-0.71s1.45-0.16 3.72 0.79C9.19 1.11 9.54 2.96 9.54 2.96L5.68 12.07z m1 0.42s1.56-1 4.02 0.05c2.26 0.96 3.15 2.11 3.15 2.11L17.72 5.54s-0.89-1.15-3.14-2.13c-2.46-1.06-4.03-0.03-4.04-0.03l-3.86 9.11z"></path><path d="M4.99 15.12S4.41 12.36 1.95 11.31c-2.26-0.96-3.71-0.8-3.71-0.8l0.47-1.09s1.45-0.16 3.71 0.78c2.47 1.03 3.03 3.83 3.03 3.83L4.99 15.12z m0 0s2.39-1.51 4.85-0.46c2.26 0.96 3.15 2.11 3.15 2.11l0.47-1.09s-0.89-1.15-3.15-2.13c-2.45-1.06-4.86 0.48-4.86 0.48l-0.46 1.09z"></path></g><g id="SvgjsG1333"><use xlink:href="#SvgjsG1332" transform="translate(0, 0) scale(2.1)" fill="rgba(186, 186, 227, 1)"></use><use xlink:href="#SvgjsG1332" transform="translate(0, 48.300000000000004) scale(2.1)" fill="rgba(186, 186, 227, 1)"></use><use xlink:href="#SvgjsG1332" transform="translate(0, 96.60000000000001) scale(2.1)" fill="rgba(186, 186, 227, 1)"></use><use xlink:href="#SvgjsG1332" transform="translate(0, 144.9) scale(2.1)" fill="rgba(186, 186, 227, 1)"></use><use xlink:href="#SvgjsG1332" transform="translate(0, 193.20000000000002) scale(2.1)" fill="rgba(186, 186, 227, 1)"></use><use xlink:href="#SvgjsG1332" transform="translate(0, 241.50000000000003) scale(2.1)" fill="rgba(186, 186, 227, 1)"></use><use xlink:href="#SvgjsG1332" transform="translate(0, 289.8) scale(2.1)" fill="rgba(186, 186, 227, 1)"></use><use xlink:href="#SvgjsG1332" transform="translate(0, 338.1) scale(2.1)" fill="rgba(186, 186, 227, 1)"></use><use xlink:href="#SvgjsG1332" transform="translate(0, 386.40000000000003) scale(2.1)" fill="rgba(186, 186, 227, 1)"></use><use xlink:href="#SvgjsG1332" transform="translate(0, 434.70000000000005) scale(2.1)" fill="rgba(186, 186, 227, 1)"></use><use xlink:href="#SvgjsG1332" transform="translate(48.300000000000004, 0) scale(2.1)" fill="rgba(186, 186, 227, 1)"></use><use xlink:href="#SvgjsG1332" transform="translate(48.300000000000004, 48.300000000000004) scale(2.1)" fill="rgba(186, 186, 227, 1)"></use><use xlink:href="#SvgjsG1332" transform="translate(48.300000000000004, 96.60000000000001) scale(2.1)" fill="rgba(186, 186, 227, 1)"></use><use xlink:href="#SvgjsG1332" transform="translate(48.300000000000004, 144.9) scale(2.1)" fill="rgba(186, 186, 227, 1)"></use><use xlink:href="#SvgjsG1332" transform="translate(48.300000000000004, 193.20000000000002) scale(2.1)" fill="rgba(186, 186, 227, 1)"></use><use xlink:href="#SvgjsG1332" transform="translate(48.300000000000004, 241.50000000000003) scale(2.1)" fill="rgba(186, 186, 227, 1)"></use><use xlink:href="#SvgjsG1332" transform="translate(48.300000000000004, 289.8) scale(2.1)" fill="rgba(186, 186, 227, 1)"></use><use xlink:href="#SvgjsG1332" transform="translate(48.300000000000004, 338.1) scale(2.1)" fill="rgba(186, 186, 227, 1)"></use><use xlink:href="#SvgjsG1332" transform="translate(48.300000000000004, 386.40000000000003) scale(2.1)" fill="rgba(186, 186, 227, 1)"></use><use xlink:href="#SvgjsG1332" transform="translate(48.300000000000004, 434.70000000000005) scale(2.1)" fill="rgba(186, 186, 227, 1)"></use><use xlink:href="#SvgjsG1332" transform="translate(96.60000000000001, 0) scale(2.1)" fill="rgba(186, 186, 227, 1)"></use><use xlink:href="#SvgjsG1332" transform="translate(96.60000000000001, 48.300000000000004) scale(2.1)" fill="rgba(186, 186, 227, 1)"></use><use xlink:href="#SvgjsG1332" transform="translate(96.60000000000001, 96.60000000000001) scale(2.1)" fill="rgba(186, 186, 227, 1)"></use><use xlink:href="#SvgjsG1332" transform="translate(96.60000000000001, 144.9) scale(2.1)" fill="rgba(186, 186, 227, 1)"></use><use xlink:href="#SvgjsG1332" transform="translate(96.60000000000001, 193.20000000000002) scale(2.1)" fill="rgba(186, 186, 227, 1)"></use><use xlink:href="#SvgjsG1332" transform="translate(96.60000000000001, 241.50000000000003) scale(2.1)" fill="rgba(186, 186, 227, 1)"></use><use xlink:href="#SvgjsG1332" transform="translate(96.60000000000001, 289.8) scale(2.1)" fill="rgba(186, 186, 227, 1)"></use><use xlink:href="#SvgjsG1332" transform="translate(96.60000000000001, 338.1) scale(2.1)" fill="rgba(186, 186, 227, 1)"></use><use xlink:href="#SvgjsG1332" transform="translate(96.60000000000001, 386.40000000000003) scale(2.1)" fill="rgba(186, 186, 227, 1)"></use><use xlink:href="#SvgjsG1332" transform="translate(96.60000000000001, 434.70000000000005) scale(2.1)" fill="rgba(186, 186, 227, 1)"></use><use xlink:href="#SvgjsG1332" transform="translate(144.9, 0) scale(2.1)" fill="rgba(186, 186, 227, 1)"></use><use xlink:href="#SvgjsG1332" transform="translate(144.9, 48.300000000000004) scale(2.1)" fill="rgba(186, 186, 227, 1)"></use><use xlink:href="#SvgjsG1332" transform="translate(144.9, 96.60000000000001) scale(2.1)" fill="rgba(186, 186, 227, 1)"></use><use xlink:href="#SvgjsG1332" transform="translate(144.9, 144.9) scale(2.1)" fill="rgba(186, 186, 227, 1)"></use><use xlink:href="#SvgjsG1332" transform="translate(144.9, 193.20000000000002) scale(2.1)" fill="rgba(186, 186, 227, 1)"></use><use xlink:href="#SvgjsG1332" transform="translate(144.9, 241.50000000000003) scale(2.1)" fill="rgba(186, 186, 227, 1)"></use><use xlink:href="#SvgjsG1332" transform="translate(144.9, 289.8) scale(2.1)" fill="rgba(186, 186, 227, 1)"></use><use xlink:href="#SvgjsG1332" transform="translate(144.9, 338.1) scale(2.1)" fill="rgba(186, 186, 227, 1)"></use><use xlink:href="#SvgjsG1332" transform="translate(144.9, 386.40000000000003) scale(2.1)" fill="rgba(186, 186, 227, 1)"></use><use xlink:href="#SvgjsG1332" transform="translate(144.9, 434.70000000000005) scale(2.1)" fill="rgba(186, 186, 227, 1)"></use><use xlink:href="#SvgjsG1332" transform="translate(193.20000000000002, 0) scale(2.1)" fill="rgba(186, 186, 227, 1)"></use><use xlink:href="#SvgjsG1332" transform="translate(193.20000000000002, 48.300000000000004) scale(2.1)" fill="rgba(186, 186, 227, 1)"></use><use xlink:href="#SvgjsG1332" transform="translate(193.20000000000002, 96.60000000000001) scale(2.1)" fill="rgba(186, 186, 227, 1)"></use><use xlink:href="#SvgjsG1332" transform="translate(193.20000000000002, 144.9) scale(2.1)" fill="rgba(186, 186, 227, 1)"></use><use xlink:href="#SvgjsG1332" transform="translate(193.20000000000002, 193.20000000000002) scale(2.1)" fill="rgba(186, 186, 227, 1)"></use><use xlink:href="#SvgjsG1332" transform="translate(193.20000000000002, 241.50000000000003) scale(2.1)" fill="rgba(186, 186, 227, 1)"></use><use xlink:href="#SvgjsG1332" transform="translate(193.20000000000002, 289.8) scale(2.1)" fill="rgba(186, 186, 227, 1)"></use><use xlink:href="#SvgjsG1332" transform="translate(193.20000000000002, 338.1) scale(2.1)" fill="rgba(186, 186, 227, 1)"></use><use xlink:href="#SvgjsG1332" transform="translate(193.20000000000002, 386.40000000000003) scale(2.1)" fill="rgba(186, 186, 227, 1)"></use><use xlink:href="#SvgjsG1332" transform="translate(193.20000000000002, 434.70000000000005) scale(2.1)" fill="rgba(186, 186, 227, 1)"></use><use xlink:href="#SvgjsG1332" transform="translate(241.50000000000003, 0) scale(2.1)" fill="rgba(186, 186, 227, 1)"></use><use xlink:href="#SvgjsG1332" transform="translate(241.50000000000003, 48.300000000000004) scale(2.1)" fill="rgba(186, 186, 227, 1)"></use><use xlink:href="#SvgjsG1332" transform="translate(241.50000000000003, 96.60000000000001) scale(2.1)" fill="rgba(186, 186, 227, 1)"></use><use xlink:href="#SvgjsG1332" transform="translate(241.50000000000003, 144.9) scale(2.1)" fill="rgba(186, 186, 227, 1)"></use><use xlink:href="#SvgjsG1332" transform="translate(241.50000000000003, 193.20000000000002) scale(2.1)" fill="rgba(186, 186, 227, 1)"></use><use xlink:href="#SvgjsG1332" transform="translate(241.50000000000003, 241.50000000000003) scale(2.1)" fill="rgba(186, 186, 227, 1)"></use><use xlink:href="#SvgjsG1332" transform="translate(241.50000000000003, 289.8) scale(2.1)" fill="rgba(186, 186, 227, 1)"></use><use xlink:href="#SvgjsG1332" transform="translate(241.50000000000003, 338.1) scale(2.1)" fill="rgba(186, 186, 227, 1)"></use><use xlink:href="#SvgjsG1332" transform="translate(241.50000000000003, 386.40000000000003) scale(2.1)" fill="rgba(186, 186, 227, 1)"></use><use xlink:href="#SvgjsG1332" transform="translate(241.50000000000003, 434.70000000000005) scale(2.1)" fill="rgba(186, 186, 227, 1)"></use><use xlink:href="#SvgjsG1332" transform="translate(289.8, 0) scale(2.1)" fill="rgba(186, 186, 227, 1)"></use><use xlink:href="#SvgjsG1332" transform="translate(289.8, 48.300000000000004) scale(2.1)" fill="rgba(186, 186, 227, 1)"></use><use xlink:href="#SvgjsG1332" transform="translate(289.8, 96.60000000000001) scale(2.1)" fill="rgba(186, 186, 227, 1)"></use><use xlink:href="#SvgjsG1332" transform="translate(289.8, 144.9) scale(2.1)" fill="rgba(186, 186, 227, 1)"></use><use xlink:href="#SvgjsG1332" transform="translate(289.8, 193.20000000000002) scale(2.1)" fill="rgba(186, 186, 227, 1)"></use><use xlink:href="#SvgjsG1332" transform="translate(289.8, 241.50000000000003) scale(2.1)" fill="rgba(186, 186, 227, 1)"></use><use xlink:href="#SvgjsG1332" transform="translate(289.8, 289.8) scale(2.1)" fill="rgba(186, 186, 227, 1)"></use><use xlink:href="#SvgjsG1332" transform="translate(289.8, 338.1) scale(2.1)" fill="rgba(186, 186, 227, 1)"></use><use xlink:href="#SvgjsG1332" transform="translate(289.8, 386.40000000000003) scale(2.1)" fill="rgba(186, 186, 227, 1)"></use><use xlink:href="#SvgjsG1332" transform="translate(289.8, 434.70000000000005) scale(2.1)" fill="rgba(186, 186, 227, 1)"></use><use xlink:href="#SvgjsG1332" transform="translate(338.1, 0) scale(2.1)" fill="rgba(186, 186, 227, 1)"></use><use xlink:href="#SvgjsG1332" transform="translate(338.1, 48.300000000000004) scale(2.1)" fill="rgba(186, 186, 227, 1)"></use><use xlink:href="#SvgjsG1332" transform="translate(338.1, 96.60000000000001) scale(2.1)" fill="rgba(186, 186, 227, 1)"></use><use xlink:href="#SvgjsG1332" transform="translate(338.1, 144.9) scale(2.1)" fill="rgba(186, 186, 227, 1)"></use><use xlink:href="#SvgjsG1332" transform="translate(338.1, 193.20000000000002) scale(2.1)" fill="rgba(186, 186, 227, 1)"></use><use xlink:href="#SvgjsG1332" transform="translate(338.1, 241.50000000000003) scale(2.1)" fill="rgba(186, 186, 227, 1)"></use><use xlink:href="#SvgjsG1332" transform="translate(338.1, 289.8) scale(2.1)" fill="rgba(186, 186, 227, 1)"></use><use xlink:href="#SvgjsG1332" transform="translate(338.1, 338.1) scale(2.1)" fill="rgba(186, 186, 227, 1)"></use><use xlink:href="#SvgjsG1332" transform="translate(338.1, 386.40000000000003) scale(2.1)" fill="rgba(186, 186, 227, 1)"></use><use xlink:href="#SvgjsG1332" transform="translate(338.1, 434.70000000000005) scale(2.1)" fill="rgba(186, 186, 227, 1)"></use><use xlink:href="#SvgjsG1332" transform="translate(386.40000000000003, 0) scale(2.1)" fill="rgba(186, 186, 227, 1)"></use><use xlink:href="#SvgjsG1332" transform="translate(386.40000000000003, 48.300000000000004) scale(2.1)" fill="rgba(186, 186, 227, 1)"></use><use xlink:href="#SvgjsG1332" transform="translate(386.40000000000003, 96.60000000000001) scale(2.1)" fill="rgba(186, 186, 227, 1)"></use><use xlink:href="#SvgjsG1332" transform="translate(386.40000000000003, 144.9) scale(2.1)" fill="rgba(186, 186, 227, 1)"></use><use xlink:href="#SvgjsG1332" transform="translate(386.40000000000003, 193.20000000000002) scale(2.1)" fill="rgba(186, 186, 227, 1)"></use><use xlink:href="#SvgjsG1332" transform="translate(386.40000000000003, 241.50000000000003) scale(2.1)" fill="rgba(186, 186, 227, 1)"></use><use xlink:href="#SvgjsG1332" transform="translate(386.40000000000003, 289.8) scale(2.1)" fill="rgba(186, 186, 227, 1)"></use><use xlink:href="#SvgjsG1332" transform="translate(386.40000000000003, 338.1) scale(2.1)" fill="rgba(186, 186, 227, 1)"></use><use xlink:href="#SvgjsG1332" transform="translate(386.40000000000003, 386.40000000000003) scale(2.1)" fill="rgba(186, 186, 227, 1)"></use><use xlink:href="#SvgjsG1332" transform="translate(386.40000000000003, 434.70000000000005) scale(2.1)" fill="rgba(186, 186, 227, 1)"></use><use xlink:href="#SvgjsG1332" transform="translate(434.70000000000005, 0) scale(2.1)" fill="rgba(186, 186, 227, 1)"></use><use xlink:href="#SvgjsG1332" transform="translate(434.70000000000005, 48.300000000000004) scale(2.1)" fill="rgba(186, 186, 227, 1)"></use><use xlink:href="#SvgjsG1332" transform="translate(434.70000000000005, 96.60000000000001) scale(2.1)" fill="rgba(186, 186, 227, 1)"></use><use xlink:href="#SvgjsG1332" transform="translate(434.70000000000005, 144.9) scale(2.1)" fill="rgba(186, 186, 227, 1)"></use><use xlink:href="#SvgjsG1332" transform="translate(434.70000000000005, 193.20000000000002) scale(2.1)" fill="rgba(186, 186, 227, 1)"></use><use xlink:href="#SvgjsG1332" transform="translate(434.70000000000005, 241.50000000000003) scale(2.1)" fill="rgba(186, 186, 227, 1)"></use><use xlink:href="#SvgjsG1332" transform="translate(434.70000000000005, 289.8) scale(2.1)" fill="rgba(186, 186, 227, 1)"></use><use xlink:href="#SvgjsG1332" transform="translate(434.70000000000005, 338.1) scale(2.1)" fill="rgba(186, 186, 227, 1)"></use><use xlink:href="#SvgjsG1332" transform="translate(434.70000000000005, 386.40000000000003) scale(2.1)" fill="rgba(186, 186, 227, 1)"></use><use xlink:href="#SvgjsG1332" transform="translate(434.70000000000005, 434.70000000000005) scale(2.1)" fill="rgba(186, 186, 227, 1)"></use></g></defs></svg>