<?xml version="1.0" encoding="UTF-8" standalone="no"?>
<svg
   data-name="Layer 1"
   width="744"
   height="539.28592"
   viewBox="0 0 744 539.28592"
   version="1.1"
   id="svg251"
   sodipodi:docname="undraw_education_f8ru.svg"
   xml:space="preserve"
   inkscape:version="1.2.2 (b0a8486541, 2022-12-01)"
   xmlns:inkscape="http://www.inkscape.org/namespaces/inkscape"
   xmlns:sodipodi="http://sodipodi.sourceforge.net/DTD/sodipodi-0.dtd"
   xmlns="http://www.w3.org/2000/svg"
   xmlns:svg="http://www.w3.org/2000/svg"><defs
     id="defs255" /><sodipodi:namedview
     id="namedview253"
     pagecolor="#505050"
     bordercolor="#eeeeee"
     borderopacity="1"
     inkscape:showpageshadow="0"
     inkscape:pageopacity="0"
     inkscape:pagecheckerboard="0"
     inkscape:deskcolor="#505050"
     showgrid="false"
     inkscape:zoom="0.91602609"
     inkscape:cx="235.80114"
     inkscape:cy="269.64297"
     inkscape:window-width="1366"
     inkscape:window-height="703"
     inkscape:window-x="0"
     inkscape:window-y="0"
     inkscape:window-maximized="1"
     inkscape:current-layer="svg251" /><path
     d="m 702.11417,584.643 v 130 H 376.41542 c -37.109,0 -67.30125,-29.15983 -67.30125,-65 0,-35.84017 30.19221,-65 67.30125,-65 z"
     transform="translate(-228,-180.35704)"
     fill="#f2f2f2"
     id="path185"
     style="display:none" /><path
     d="m 710.11417,713.643 a 5.002,5.002 0 0 1 -5,5 h -334.5 a 68.5,68.5 0 1 1 0,-137 h 334.5 a 5,5 0 0 1 0,10 h -334.5 a 58.5,58.5 0 1 0 0,117 h 334.5 a 5.002,5.002 0 0 1 5,5 z"
     transform="translate(-228,-180.35704)"
     fill="#6c63ff"
     id="path187"
     style="display:none" /><path
     d="m 702.11417,614.643 h -350 a 1,1 0 1 1 0,-2 h 350 a 1,1 0 0 1 0,2 z"
     transform="translate(-228,-180.35704)"
     fill="#cccccc"
     id="path189"
     style="display:none" /><path
     d="m 702.11417,638.643 h -350 a 1,1 0 1 1 0,-2 h 350 a 1,1 0 0 1 0,2 z"
     transform="translate(-228,-180.35704)"
     fill="#cccccc"
     id="path191"
     style="display:none" /><path
     d="m 702.11417,662.643 h -350 a 1,1 0 1 1 0,-2 h 350 a 1,1 0 0 1 0,2 z"
     transform="translate(-228,-180.35704)"
     fill="#cccccc"
     id="path193"
     style="display:none" /><path
     d="m 702.11417,686.643 h -350 a 1,1 0 1 1 0,-2 h 350 a 1,1 0 0 1 0,2 z"
     transform="translate(-228,-180.35704)"
     fill="#cccccc"
     id="path195"
     style="display:none" /><path
     d="M 953.83158,609.11391 872.26685,710.34235 618.65167,505.99212 c -28.89608,-23.283 -34.11066,-64.9324 -11.62379,-92.84043 22.48687,-27.90803 64.29244,-31.671 93.18852,-8.388 z"
     transform="translate(-228,-180.35704)"
     fill="#f2f2f2"
     id="path197"
     style="display:none" /><path
     d="m 879.12372,714.583 a 5.002,5.002 0 0 1 -7.03051,0.7563 L 611.62467,505.467 a 68.500002,68.500002 0 0 1 85.95667,-106.6792 l 260.46854,209.87234 a 5,5 0 1 1 -6.27421,7.7868 L 691.30713,406.57463 a 58.5,58.5 0 1 0 -73.40825,91.10558 l 260.46854,209.87232 a 5.002,5.002 0 0 1 0.7563,7.03047 z"
     transform="translate(-228,-180.35704)"
     fill="#cccccc"
     id="path199"
     style="display:none" /><path
     d="M 935.009,632.47432 662.47086,412.877 a 1.0000023,1.0000023 0 1 1 1.25485,-1.55736 L 936.26379,630.917 a 1,1 0 1 1 -1.25484,1.55736 z"
     transform="translate(-228,-180.35704)"
     fill="#cccccc"
     id="path201"
     style="display:none" /><path
     d="M 919.95085,651.16265 647.41276,431.56531 a 1,1 0 0 1 1.25484,-1.55736 l 272.53809,219.59734 a 1,1 0 1 1 -1.25484,1.55736 z"
     transform="translate(-228,-180.35704)"
     fill="#cccccc"
     id="path203"
     style="display:none" /><path
     d="M 904.89274,669.851 632.35466,450.25364 a 1.0000031,1.0000031 0 0 1 1.25484,-1.55737 l 272.53809,219.59734 a 1.0000023,1.0000023 0 1 1 -1.25485,1.55736 z"
     transform="translate(-228,-180.35704)"
     fill="#cccccc"
     id="path205"
     style="display:none" /><path
     d="M 889.83464,688.5393 617.29655,468.942 a 1.0000023,1.0000023 0 1 1 1.25485,-1.55736 l 272.53808,219.5973 a 1,1 0 1 1 -1.25484,1.55736 z"
     transform="translate(-228,-180.35704)"
     fill="#cccccc"
     id="path207"
     style="display:none" /><path
     d="M 971,719.643 H 229 a 1,1 0 0 1 0,-2 h 742 a 1,1 0 0 1 0,2 z"
     transform="translate(-228,-180.35704)"
     fill="#cccccc"
     id="path209"
     style="display:none" /><polygon
     points="326.649,390.621 321.212,346.525 338.085,346.527 338.081,390.622 "
     fill="#ffb8b8"
     id="polygon211"
     style="display:none" /><path
     d="m 318.48241,387.35454 h 22.04781 v 13.88195 h -35.92974 v 0 a 13.88193,13.88193 0 0 1 13.88193,-13.88195 z"
     fill="#2f2e41"
     id="path213"
     style="display:none" /><polygon
     points="209.854,390.621 204.417,346.525 221.29,346.527 221.286,390.622 "
     fill="#ffb8b8"
     id="polygon215"
     style="display:none" /><path
     d="m 201.68787,387.35454 h 22.04781 v 13.88195 h -35.92974 v 0 a 13.88193,13.88193 0 0 1 13.88193,-13.88195 z"
     fill="#2f2e41"
     id="path217"
     style="display:none" /><path
     d="m 487.47085,243.89011 v -5.00006 a 32.25,32.25 0 0 1 32.25,-32.25 h 6e-5 a 32.25,32.25 0 0 1 32.25,32.25 v 5.00006 a 23.25,23.25 0 0 1 -23.25,23.25 h -18 a 23.25,23.25 0 0 1 -23.25006,-23.25 z"
     transform="translate(-228,-180.35704)"
     fill="#2f2e41"
     id="path219"
     style="display:none" /><circle
     cx="291.72086"
     cy="63.94249"
     r="24.561029"
     fill="#ffb8b8"
     id="circle221"
     style="display:none" /><path
     d="M 634.4877,376.4751"
     transform="translate(-228,-180.35704)"
     fill="#ffb8b8"
     id="path223"
     style="display:none" /><path
     d="m 386.12458,328.7126 a 9.377,9.377 0 0 1 14.28028,1.6774 l 21.05462,-3.98267 5.5409,12.20454 -29.8122,5.2067 a 9.42779,9.42779 0 0 1 -11.0636,-15.106 z"
     transform="translate(-228,-180.35704)"
     fill="#ffb8b8"
     id="path225"
     style="display:none" /><path
     d="m 500.57256,284.32827 0.27536,0.41722 -34.52582,22.74437 -58.25831,18.60329 a 3.5078,3.5078 0 0 0 -2.412,3.73827 l 1.2709,10.94662 a 3.50073,3.50073 0 0 0 4.21024,3.01849 l 54.82973,-11.75277 a 19.80593,19.80593 0 0 0 7.37148,-3.24548 L 512.122,301.20139 a 10.01984,10.01984 0 0 0 4.1584,-8.94749 9.9752,9.9752 0 0 0 -15.43253,-7.50841 z"
     transform="translate(-228,-180.35704)"
     fill="#cccccc"
     id="path227"
     style="display:none" /><path
     d="m 554.85319,558.46572 a 4.51847,4.51847 0 0 1 -4.1377,-2.70118 l -52.40991,-129.501 a 1.49982,1.49982 0 0 0 -2.80859,0.1582 L 452.73868,552.4955 a 4.50087,4.50087 0 0 1 -5.88159,2.89111 l -14.33838,-5.37695 a 4.48887,4.48887 0 0 1 -2.897,-3.70459 c -6.45044,-56.19238 49.80005,-198.02978 50.36914,-199.45556 l 0.15747,-0.395 51.2771,11.34277 0.10669,0.11621 c 20.45777,22.31787 37.27344,163.082 40.43677,191.07373 a 4.47857,4.47857 0 0 1 -2.97119,4.74658 l -12.65625,4.47608 a 4.45661,4.45661 0 0 1 -1.48825,0.25584 z"
     transform="translate(-228,-180.35704)"
     fill="#2f2e41"
     id="path229"
     style="display:none" /><path
     d="m 510.67252,362.36269 c -12.42358,0 -26.27441,-2.477 -30.53784,-12.70068 l -0.0981,-0.23487 0.13256,-0.21777 c 3.36524,-5.52149 7.813,-14.94043 5.42237,-16.7085 -4.70923,-3.48193 -6.99439,-9.21 -6.79151,-17.02539 0.44043,-16.96582 12.00049,-32.02881 28.76587,-37.48242 h 2.5e-4 a 127.64221,127.64221 0 0 1 14.26292,-3.67236 24.28073,24.28073 0 0 1 20.13257,4.97168 24.5264,24.5264 0 0 1 9.09594,18.8706 c 0.17578,18.13086 -2.61548,43.3833 -16.91211,60.72022 a 4.44777,4.44777 0 0 1 -2.633,1.53125 122.223,122.223 0 0 1 -20.83988,1.94824 z"
     transform="translate(-228,-180.35704)"
     fill="#cccccc"
     id="path231"
     style="display:none" /><path
     d="m 506.05111,361.68381 a 9.55593,9.55593 0 0 1 11.67847,-6.66417 9.40742,9.40742 0 0 1 1.44781,0.53625 l 15.98666,-14.54884 11.118,7.49027 -22.86179,20.23092 a 9.53906,9.53906 0 0 1 -10.81319,4.58661 9.39418,9.39418 0 0 1 -6.55596,-11.63104 z"
     transform="translate(-228,-180.35704)"
     fill="#ffb8b8"
     id="path233"
     style="display:none" /><path
     d="m 532.63175,361.86855 a 4.48762,4.48762 0 0 1 -2.84546,-1.01514 l -6.30444,-5.15185 a 4.49995,4.49995 0 0 1 0.10913,-7.05518 l 26.44165,-20.27978 a 1.50334,1.50334 0 0 0 0.28345,-2.09473 L 533.99577,304.6957 a 13.28507,13.28507 0 0 1 0.88745,-17.11426 v 0 a 13.24793,13.24793 0 0 1 17.88769,-1.43067 l 0.10327,0.10889 17.042,24.40235 a 15.19267,15.19267 0 0 1 -0.36011,24.18554 l -34.24561,26.13867 a 4.50736,4.50736 0 0 1 -2.67871,0.88233 z"
     transform="translate(-228,-180.35704)"
     fill="#cccccc"
     id="path235"
     style="display:none" /><path
     d="m 497.96524,237.39008 v -12.18615 l 21.75561,-9.5 20.74439,9.5 v 12.18615 a 2,2 0 0 1 -2,2 h -38.5 a 2,2 0 0 1 -2,-2 z"
     transform="translate(-228,-180.35704)"
     fill="#2f2e41"
     id="path237"
     style="display:none" /><path
     d="m 518.72211,208.25668 c -3.19879,-10.23852 3.51931,-21.97233 13.45085,-26.025 9.93154,-4.05267 21.81344,-1.21974 30.19368,5.47588 8.38024,6.69562 13.57963,16.72441 16.33459,27.09118 2.75496,10.36677 3.27788,21.17682 3.7865,31.89135 12.20223,2.24139 20.50283,16.71428 16.27576,28.37833 -4.22707,11.66405 -19.87268,17.45879 -30.67781,11.3623 -10.80513,-6.09649 -13.93468,-22.48461 -6.13639,-32.1337 a 26.37385,26.37385 0 0 0 -30.68776,-40.9097 c -6.0138,2.51492 -13.55953,-4.01939 -12.53942,-5.13064 z"
     fill="#2f2e41"
     id="path239"
     transform="translate(-228,-180.35704)"
     style="display:none" /><path
     d="m 381.61417,281.43984 a 104.44868,104.44868 0 0 1 -42.34814,-9.2749 4.47254,4.47254 0 0 1 -2.65186,-4.104 V 231.643 a 4.505,4.505 0 0 1 4.5,-4.5 h 81 a 4.50508,4.50508 0 0 1 4.5,4.5 v 36.418 a 4.47272,4.47272 0 0 1 -2.65185,4.104 v 0 a 104.44869,104.44869 0 0 1 -42.34815,9.27484 z"
     transform="translate(-228,-180.35704)"
     fill="#6c63ff"
     id="path241"
     style="display:none" /><path
     d="m 381.60306,251.93691 a 4.50521,4.50521 0 0 1 -1.74865,-0.35156 l -64.23194,-27.09961 a 4.49965,4.49965 0 0 1 0.15308,-8.353 L 380.00834,191.765 a 4.48365,4.48365 0 0 1 3.2113,0.007 l 63.37207,24.36767 a 4.50012,4.50012 0 0 1 0.15406,8.3379 L 383.373,251.57656 a 4.507,4.507 0 0 1 -1.76994,0.36035 z"
     transform="translate(-228,-180.35704)"
     fill="#6c63ff"
     id="path243"
     style="display:none" /><circle
     cx="116.11417"
     cy="88.285919"
     r="6"
     fill="#3f3d56"
     id="circle245"
     style="display:none" /><path
     d="M 446.96476,220.63082 383.59171,247.73 a 3.99993,3.99993 0 0 1 -3.12744,0.008 l -64.23193,-27.09882 a 3.92451,3.92451 0 0 1 -1.9126,-1.68109 3.997,3.997 0 0 0 1.9126,5.68109 l 64.23193,27.09882 a 3.99993,3.99993 0 0 0 3.12744,-0.008 l 63.37305,-27.09918 a 3.99713,3.99713 0 0 0 1.89453,-5.67322 3.92676,3.92676 0 0 1 -1.89453,1.67322 z"
     opacity="0.2"
     id="path247"
     transform="translate(-228,-180.35704)"
     style="display:none" /><path
     d="m 344.61832,268.61952 a 1,1 0 0 0 1,-1 V 234.1581 l 32.9812,-12.01514 a 1.000111,1.000111 0 0 0 0.0298,-2 l -32.9812,12.01514 a 1.96167,1.96167 0 0 0 -1.43335,0.57519 1.98569,1.98569 0 0 0 -0.59644,1.42481 v 33.46142 a 1.00005,1.00005 0 0 0 1,1 z"
     transform="translate(-228,-180.35704)"
     fill="#3f3d56"
     id="path249"
     style="display:none" /><g
     id="g3722"
     transform="matrix(0.7951683,0,0,0.84317695,0.32352127,2.1149932)"><circle
       cx="276.03873"
       cy="51"
       r="51"
       fill="#ff6584"
       id="circle3425" /><path
       d="m 501.397,142.83238 c -24.7168,-3.34094 -52.93512,10.01868 -59.34131,34.12354 a 21.59652,21.59652 0 0 0 -41.0935,2.1087 l 2.82971,2.02668 a 372.27461,372.27461 0 0 0 160.65881,-0.72638 C 547.2578,162.296 526.11382,146.17327 501.397,142.83238 Z"
       transform="translate(-133.32283,-130.962)"
       fill="#f0f0f0"
       id="path3427" /><path
       d="m 395.397,210.83238 c -24.7168,-3.34094 -52.93512,10.01868 -59.34131,34.12354 a 21.59652,21.59652 0 0 0 -41.0935,2.1087 l 2.82971,2.02668 a 372.27461,372.27461 0 0 0 160.65881,-0.72638 C 441.2578,230.296 420.11382,214.17327 395.397,210.83238 Z"
       transform="translate(-133.32283,-130.962)"
       fill="#f0f0f0"
       id="path3429" /><path
       d="m 584.08252,347.21943 c -8.366,-13.83661 -18.2793,-28.61 -33.80438,-33.128 -17.97913,-5.23218 -36.44818,5.16174 -52.1142,15.4184 A 1518.6078,1518.6078 0 0 0 363.01709,429.0843 l 0.0472,0.53711 q 50.42432,-3.47736 100.84851,-6.95465 c 24.28772,-1.67493 49.40985,-3.58087 70.87348,-15.0705 8.14471,-4.35986 16.084,-10.18377 25.31335,-10.5896 11.46655,-0.50415 21.46466,7.50409 29.32178,15.87085 46.47741,49.49213 59.92706,125.17743 112.07007,168.66 a 1654.7867,1654.7867 0 0 0 -117.409,-234.31808 z"
       transform="translate(-133.32283,-130.962)"
       fill="#f2f2f2"
       id="path3431" /><path
       d="m 869.77241,767.00252 c -5.13965,-6.49 -7.23974,-8.01 -12.30957,-14.56 q -61.9204,-80.08494 -116.40039,-165.58 -37.00488,-58.065 -70.33984,-118.36 -15.87012,-28.665 -30.87012,-57.78 -11.63965,-22.575 -22.75977,-45.42 c -2.12011,-4.35 -4.18017,-8.72 -6.23,-13.1 -4.83007,-10.3 -9.57031,-20.65 -14.66015,-30.81 -5.79981,-11.58 -12.85987,-23.72 -23.51026,-31.5 a 32.07579,32.07579 0 0 0 -16.71,-6.43 c -8.66992,-0.56 -16.66992,3.02 -24.18994,6.93 -55.02,28.69 -106.52978,64.66 -153.11963,105.59 a 797.15615,797.15615 0 0 0 -124.40039,138.09 c -1.09961,1.57 -3.6997,0.07 -2.58984,-1.51 q 6.55518,-9.27008 13.37012,-18.34 a 801.56189,801.56189 0 0 1 204.63964,-190.88 q 19.90577,-12.9 40.56006,-24.59 c 6.93994,-3.93 13.91016,-7.81 21,-11.45 6.9502,-3.57 14.33008,-6.78 22.27,-6.9 27.02,-0.42 41.01026,30.18 50.62012,50.77 q 4.53,9.72 9.16992,19.38 17.53491,36.67494 36.41992,72.68 11.655,22.23 23.82032,44.2 37.85961,68.415 80.48,134.06 c 37.64013,57.97 74.98,109.18 117.85986,163.39 1.18024,1.5 -0.92963,3.64001 -2.12006,2.12 z"
       transform="translate(-133.32283,-130.962)"
       fill="#e4e4e4"
       id="path3433" /><path
       d="m 376.00239,380.87257 c -1.56982,-1.75 -3.12988,-3.5 -4.71,-5.25 -12.46,-13.78 -25.82959,-27.4 -42.93994,-35.3 a 62.29773,62.29773 0 0 0 -26.1001,-6.05 c -9.33984,0.03 -18.46972,2.48 -27.09961,5.91 -4.08007,1.63 -8.07031,3.48 -12,5.45 -4.49023,2.26 -8.90039,4.67 -13.29,7.1 q -12.36034,6.84 -24.3999,14.28 -23.95532,14.805 -46.41015,31.87 -11.64039,8.85 -22.8003,18.28 -10.37988,8.76 -20.33984,17.99 c -1.41992,1.31 -3.54,-0.81 -2.12012,-2.12 1.75,-1.63 3.52,-3.25 5.29,-4.85 q 7.5,-6.78 15.24024,-13.3 14.11449,-11.91 28.96,-22.9 23.0852,-17.1 47.75976,-31.88 12.33033,-7.38 25,-14.14 c 2.55029,-1.36 5.13037,-2.69 7.74024,-3.95 a 123.38878,123.38878 0 0 1 18.3999,-7.49 65.45682,65.45682 0 0 1 27.79,-2.73 72.35208,72.35208 0 0 1 25.64013,8.87 c 16.79981,9.39 29.82959,23.91 42.50977,38.08 1.28031,1.44 -0.83004,3.57 -2.12008,2.13 z"
       transform="translate(-133.32283,-130.962)"
       fill="#e4e4e4"
       id="path3435" /><path
       d="m 720.2258,523.67006 40.25674,-14.72406 19.98761,-7.31056 c 6.50962,-2.38092 13.0036,-5.09142 19.733,-6.79628 5.94967,-1.50732 11.99508,-1.754 17.86079,0.22757 a 41.165,41.165 0 0 1 13.931,8.63575 113.05346,113.05346 0 0 1 11.42633,12.20252 c 4.35168,5.22973 8.63907,10.51429 12.94569,15.78113 q 26.6614,32.606 52.97414,65.495 26.31214,32.88847 52.27246,66.05639 26.02375,33.249 51.68964,66.77607 3.144,4.1072 6.2828,8.21849 c 1.156,1.51417 3.7628,0.0214 2.5904,-1.51415 q -25.85518,-33.86422 -52.07077,-67.4512 -26.28007,-33.66726 -52.92331,-67.04892 -26.64271,-33.381 -53.64551,-66.47249 -6.72721,-8.24409 -13.47663,-16.47 c -3.79558,-4.62592 -7.54837,-9.30172 -11.71148,-13.60732 -7.64169,-7.90326 -17.189,-14.88761 -28.61729,-15.07712 -6.71922,-0.11141 -13.222,2.02075 -19.46484,4.2792 -6.73008,2.43471 -13.444,4.915 -20.16547,7.37338 l -40.53825,14.82705 -10.13456,3.70676 c -1.79851,0.65781 -1.02158,3.55818 0.79751,2.89284 z"
       transform="translate(-133.32283,-130.962)"
       fill="#e4e4e4"
       id="path3437" /><path
       d="m 323.05481,357.662 c -20.45758,-10.51416 -46.65637,-8.4549 -65.45544,4.681 a 933.583,933.583 0 0 1 106.2149,24.79 c -14.48907,-8.491 -25.823,-21.79437 -40.75946,-29.471 z"
       transform="translate(-133.32283,-130.962)"
       fill="#f2f2f2"
       id="path3439" /><path
       d="m 257.398,362.30677 -3.93835,3.20117 c 1.33215,-1.12042 2.717,-2.17089 4.13971,-3.165 -0.0672,-0.0116 -0.13415,-0.0246 -0.20136,-0.0362 z"
       transform="translate(-133.32283,-130.962)"
       fill="#f2f2f2"
       id="path3441" /><path
       d="m 830.47913,523.81715 c -3.96277,-4.82373 -8.2472,-9.87445 -14.1745,-11.83374 l -5.53388,0.21826 A 627.70418,627.70418 0 0 0 977.95959,703.33784 Q 904.21936,613.57752 830.47913,523.81715 Z"
       transform="translate(-133.32283,-130.962)"
       fill="#f2f2f2"
       id="path3443" /><path
       d="m 418.37151,712.2298 c 2.2563,-18.1432 13.50046,-36.01951 30.80358,-41.9238 a 84.23663,84.23663 0 0 0 0.004,57.8341 c 2.65882,7.192 6.36493,14.91443 3.864,22.1629 -1.55607,4.5102 -5.3628,7.9609 -9.618,10.11853 -4.25542,2.15763 -8.978,3.186 -13.64158,4.19379 l -0.91781,0.75908 c -7.40329,-16.71698 -12.75066,-35.0014 -10.49437,-53.1446 z"
       transform="translate(-133.32283,-130.962)"
       fill="#f0f0f0"
       id="path3445" /><path
       d="m 449.3468,670.64906 a 71.99962,71.99962 0 0 0 -17.899,40.52135 31.00571,31.00571 0 0 0 0.35269,9.70821 17.783,17.783 0 0 0 4.42287,8.24814 c 1.99348,2.19025 4.28623,4.19977 5.71258,6.83646 a 10.88857,10.88857 0 0 1 0.532,8.889 c -1.25932,3.612 -3.74137,6.556 -6.26867,9.3507 -2.80607,3.103 -5.76987,6.28151 -6.96266,10.39522 -0.14453,0.49844 -0.90948,0.245 -0.76517,-0.25264 2.07526,-7.15715 9.023,-11.22255 12.3363,-17.6689 1.54607,-3.008 2.195,-6.50013 0.74559,-9.67536 -1.26745,-2.77661 -3.63,-4.85087 -5.66759,-7.0511 a 18.97584,18.97584 0 0 1 -4.6251,-7.90377 28.66392,28.66392 0 0 1 -0.72463,-9.65883 69.85254,69.85254 0 0 1 5.10157,-21.22754 73.27638,73.27638 0 0 1 13.176,-21.11527 c 0.34453,-0.3858 0.87547,0.22106 0.53319,0.60435 z"
       transform="translate(-133.32283,-130.962)"
       fill="#ffffff"
       id="path3447" /><path
       d="m 431.6647,706.294 a 10.80224,10.80224 0 0 1 -8.22263,-11.31574 c 0.0411,-0.51683 0.84611,-0.47731 0.805,0.0402 a 10.00263,10.00263 0 0 0 7.67028,10.51037 c 0.50444,0.11993 0.24891,0.88442 -0.25265,0.76517 z"
       transform="translate(-133.32283,-130.962)"
       fill="#ffffff"
       id="path3449" /><path
       d="m 435.06632,728.14935 a 20.82049,20.82049 0 0 0 9.29757,-11.991 c 0.14628,-0.49791 0.91127,-0.24466 0.76517,0.25264 a 21.65641,21.65641 0 0 1 -9.70033,12.4581 c -0.44683,0.265 -0.80681,-0.45609 -0.36241,-0.7197 z"
       transform="translate(-133.32283,-130.962)"
       fill="#ffffff"
       id="path3451" /><path
       d="m 439.541,684.18505 a 6.11461,6.11461 0 0 0 5.79456,-0.29415 c 0.44325,-0.27058 0.80277,0.45088 0.36241,0.7197 a 6.85189,6.85189 0 0 1 -6.40961,0.33962 0.41646,0.41646 0 0 1 -0.25627,-0.50891 0.40493,0.40493 0 0 1 0.50891,-0.25626 z"
       transform="translate(-133.32283,-130.962)"
       fill="#ffffff"
       id="path3453" /><path
       d="m 501.91744,702.712 c -0.272,0.17683 -0.54393,0.35365 -0.81622,0.53729 a 80.525,80.525 0 0 0 -10.29614,8.03847 c -0.25171,0.22444 -0.50341,0.45569 -0.74815,0.68689 a 84.89212,84.89212 0 0 0 -18.4368,25.2377 82.44017,82.44017 0 0 0 -4.51581,11.68373 c -1.66632,5.529 -3.03312,11.65649 -6.33156,16.179 a 14.14151,14.14151 0 0 1 -1.10181,1.36016 h -29.80784 c -0.0677,-0.034 -0.13582,-0.0612 -0.20389,-0.0952 l -1.19014,0.0544 c 0.0478,-0.21082 0.10195,-0.42845 0.14977,-0.63927 0.0272,-0.12241 0.0611,-0.24482 0.0883,-0.36723 0.0203,-0.0816 0.0408,-0.16325 0.0545,-0.238 0.007,-0.0272 0.0136,-0.0544 0.0202,-0.0748 0.0136,-0.0748 0.0342,-0.14283 0.0478,-0.21082 q 0.44879,-1.826 0.92481,-3.652 c 0,-0.007 0,-0.007 0.007,-0.0136 a 121.21857,121.21857 0 0 1 10.20116,-26.78145 c 0.13615,-0.25162 0.272,-0.51006 0.42173,-0.76168 a 78.66681,78.66681 0 0 1 7.0661,-10.718 69.54281,69.54281 0 0 1 4.63137,-5.29778 57.83138,57.83138 0 0 1 14.4719,-10.84044 c 10.691,-5.64463 23.06817,-7.80727 34.49367,-4.35928 0.29222,0.0883 0.57813,0.17667 0.87035,0.27194 z"
       transform="translate(-133.32283,-130.962)"
       fill="#f0f0f0"
       id="path3455" /><path
       d="m 501.85043,703.09027 a 71.99959,71.99959 0 0 0 -38.688,21.57761 31.00547,31.00547 0 0 0 -5.56341,7.9638 17.783,17.783 0 0 0 -1.43454,9.24855 c 0.273,2.949 0.89376,5.93389 0.44516,8.8979 a 10.88859,10.88859 0 0 1 -4.92707,7.41767 c -3.18015,2.12575 -6.93445,2.982 -10.635,3.69184 -4.10869,0.78809 -8.38883,1.54157 -11.81794,4.108 -0.41549,0.311 -0.8737,-0.35191 -0.45884,-0.6624 5.96608,-4.46514 13.96108,-3.52814 20.48775,-6.68033 3.04546,-1.47087 5.66611,-3.86843 6.42055,-7.27633 0.65972,-2.98006 0.0222,-6.05865 -0.28,-9.04218 a 18.976,18.976 0 0 1 1.06573,-9.09536 28.664,28.664 0 0 1 5.23671,-8.14831 69.85277,69.85277 0 0 1 16.85382,-13.87752 73.27646,73.27646 0 0 1 23.23318,-8.92648 c 0.50736,-0.10061 0.56591,0.7036 0.0619,0.80355 z"
       transform="translate(-133.32283,-130.962)"
       fill="#ffffff"
       id="path3457" /><path
       d="m 466.27154,720.90493 a 10.80223,10.80223 0 0 1 0.24755,-13.98558 c 0.34394,-0.38794 0.96294,0.12831 0.61854,0.51677 a 10.00261,10.00261 0 0 0 -0.20368,13.01 c 0.33056,0.39947 -0.33374,0.856 -0.66241,0.45884 z"
       transform="translate(-133.32283,-130.962)"
       fill="#ffffff"
       id="path3459" /><path
       d="m 455.82912,740.4032 a 20.82043,20.82043 0 0 0 14.643,-3.97639 c 0.41658,-0.30948 0.87491,0.3533 0.45884,0.6624 a 21.65647,21.65647 0 0 1 -15.24581,4.10683 c -0.51634,-0.0574 -0.36959,-0.84992 0.14395,-0.79284 z"
       transform="translate(-133.32283,-130.962)"
       fill="#ffffff"
       id="path3461" /><path
       d="m 485.87142,707.99421 a 6.1146,6.1146 0 0 0 4.80373,3.25387 c 0.51681,0.0508 0.3695,0.84332 -0.14395,0.79283 a 6.85188,6.85188 0 0 1 -5.32219,-3.58786 0.41643,0.41643 0 0 1 0.10179,-0.56062 0.40494,0.40494 0 0 1 0.56062,0.10178 z"
       transform="translate(-133.32283,-130.962)"
       fill="#ffffff"
       id="path3463" /><path
       d="M 635.09378,613.64549 C 620.4733,581.306 621.01237,540.31418 643.70284,513.02471 a 163.52006,163.52006 0 0 0 58.52675,95.80513 c 11.682,9.22412 25.63557,18.2672 28.82681,32.80582 1.98584,9.04623 -0.82887,18.6146 -5.69485,26.4946 -4.86642,7.88026 -11.64948,14.3625 -18.35545,20.75085 l -0.75238,2.1862 C 677.07408,670.86462 649.71426,645.985 635.09378,613.64549 Z"
       transform="translate(-133.32283,-130.962)"
       fill="#f0f0f0"
       id="path3465" /><path
       d="m 644.33441,513.41929 a 139.76568,139.76568 0 0 0 11.34992,85.23986 60.188,60.188 0 0 0 10.40759,15.726 34.52045,34.52045 0 0 0 15.673,9.18876 c 5.51866,1.61128 11.35024,2.62038 16.38112,5.54511 a 21.13693,21.13693 0 0 1 9.87569,14.18751 c 1.56856,7.25791 0.43569,14.64658 -0.92326,21.83358 -1.50886,7.9798 -3.20251,16.2444 -1.016,24.26621 0.26492,0.97195 -1.25871,1.32619 -1.52323,0.3557 -3.80409,-13.95657 3.592,-27.72149 2.5582,-41.75329 -0.4824,-6.5475 -2.94089,-12.9893 -8.55491,-16.78287 -4.90921,-3.31732 -10.9219,-4.363 -16.52376,-5.94621 a 36.836,36.836 0 0 1 -15.65954,-8.41365 55.64221,55.64221 0 0 1 -10.9738,-15.26782 135.59768,135.59768 0 0 1 -13.02782,-40.32823 142.24424,142.24424 0 0 1 0.46208,-48.31231 c 0.18039,-0.98775 1.674,-0.51963 1.4948,0.46166 z"
       transform="translate(-133.32283,-130.962)"
       fill="#ffffff"
       id="path3467" /><path
       d="m 651.10943,590.36132 a 20.96931,20.96931 0 0 1 -25.07172,-10.4258 c -0.45494,-0.89773 0.91871,-1.64686 1.37426,-0.74794 a 19.4171,19.4171 0 0 0 23.34175,9.6505 c 0.957,-0.31174 1.30726,1.21328 0.35571,1.52324 z"
       transform="translate(-133.32283,-130.962)"
       fill="#ffffff"
       id="path3469" /><path
       d="m 678.8591,623.12544 a 40.41664,40.41664 0 0 0 3.26936,-29.27245 c -0.26147,-0.97286 1.26208,-1.32739 1.52323,-0.35571 a 42.03938,42.03938 0 0 1 -3.464,30.45373 c -0.472,0.89121 -1.79808,0.0608 -1.32861,-0.82557 z"
       transform="translate(-133.32283,-130.962)"
       fill="#ffffff"
       id="path3471" /><path
       d="m 641.78632,545.76544 a 11.86963,11.86963 0 0 0 9.30177,-6.35057 c 0.4605,-0.89675 1.78612,-0.0653 1.32861,0.82557 a 13.30085,13.30085 0 0 1 -10.27468,7.04823 0.80839,0.80839 0 0 1 -0.93947,-0.58376 0.78607,0.78607 0 0 1 0.58377,-0.93947 z"
       transform="translate(-133.32283,-130.962)"
       fill="#ffffff"
       id="path3473" /><path
       d="m 763.86725,513.34147 c -0.27162,0.56813 -0.54324,1.13625 -0.80852,1.716 a 156.31605,156.31605 0 0 0 -8.923,23.735 c -0.18989,0.6265 -0.37289,1.26428 -0.54438,1.89493 a 164.79283,164.79283 0 0 0 -5.0059,60.46479 160.03356,160.03356 0 0 0 4.34126,23.92488 c 2.83412,10.84561 6.77,22.37951 5.88185,33.20919 a 27.45446,27.45446 0 0 1 -0.449,3.36814 l -49.38039,30.16127 c -0.14662,0.0122 -0.287,0.036 -0.43412,0.0486 l -1.91654,1.2944 c -0.13411,-0.39764 -0.26465,-0.81294 -0.39875,-1.21058 -0.0788,-0.23034 -0.1465,-0.46739 -0.22525,-0.69773 -0.049,-0.15569 -0.0975,-0.31178 -0.15066,-0.44947 -0.0165,-0.0518 -0.0325,-0.10386 -0.0421,-0.14441 -0.0531,-0.13769 -0.0879,-0.27122 -0.13411,-0.39764 q -1.10415,-3.47908 -2.16324,-6.98578 c -0.007,-0.0113 -0.007,-0.0113 -0.003,-0.0293 -5.33438,-17.82666 -9.22738,-36.25527 -10.19951,-54.6889 -0.0291,-0.55461 -0.0656,-1.12016 -0.0721,-1.68855 a 152.70842,152.70842 0 0 1 0.86076,-24.90562 135.00144,135.00144 0 0 1 2.31183,-13.46272 112.26262,112.26262 0 0 1 13.00552,-32.602 c 11.99934,-20.16876 30.31544,-36.27541 52.73207,-42.12435 0.57354,-0.14928 1.13661,-0.29219 1.71706,-0.43013 z"
       transform="translate(-133.32283,-130.962)"
       fill="#f0f0f0"
       id="path3475" /><path
       d="m 764.139,514.036 a 139.76558,139.76558 0 0 0 -42.258,74.89269 60.18785,60.18785 0 0 0 -1.15826,18.8224 34.52043,34.52043 0 0 0 6.98176,16.77291 c 3.43623,4.60914 7.48488,8.92585 9.74086,14.29 a 21.13692,21.13692 0 0 1 -0.65667,17.27378 c -3.11736,6.73941 -8.47038,11.95679 -13.8825,16.877 -6.00912,5.463 -12.33728,11.04211 -15.42118,18.76349 -0.37366,0.93555 -1.80347,0.30105 -1.43038,-0.63309 5.36547,-13.43386 19.55829,-19.9714 27.181,-31.79745 3.55687,-5.51825 5.47231,-12.14184 3.27382,-18.55083 -1.92248,-5.60438 -6.09367,-10.05938 -9.61327,-14.69616 a 36.8361,36.8361 0 0 1 -7.43767,-16.146 55.64207,55.64207 0 0 1 0.43033,-18.79749 135.59759,135.59759 0 0 1 13.87838,-40.04348 142.24434,142.24434 0 0 1 29.4563,-38.29647 c 0.73872,-0.68 1.64945,0.593 0.91556,1.26859 z"
       transform="translate(-133.32283,-130.962)"
       fill="#ffffff"
       id="path3477" /><path
       d="m 723.2241,579.54894 a 20.96928,20.96928 0 0 1 -13.74131,-23.41932 c 0.17725,-0.99069 1.72506,-0.76179 1.54758,0.23022 a 19.41711,19.41711 0 0 0 12.82681,21.75873 c 0.95183,0.32729 0.3133,1.75579 -0.63308,1.43037 z"
       transform="translate(-133.32283,-130.962)"
       fill="#ffffff"
       id="path3479" /><path
       d="m 725.65439,622.41648 a 40.41659,40.41659 0 0 0 20.23444,-21.404 c 0.377,-0.9342 1.80688,-0.3 1.43038,0.63308 a 42.0394,42.0394 0 0 1 -21.101,22.23 c -0.91346,0.42738 -1.47227,-1.034 -0.56378,-1.45909 z"
       transform="translate(-133.32283,-130.962)"
       fill="#ffffff"
       id="path3481" /><path
       d="m 742.62992,538.32848 a 11.86965,11.86965 0 0 0 11.25042,0.52974 c 0.90759,-0.43876 1.46546,1.02319 0.56377,1.45908 a 13.30087,13.30087 0 0 1 -12.44727,-0.55845 0.80838,0.80838 0 0 1 -0.39865,-1.03173 0.78606,0.78606 0 0 1 1.03173,-0.39864 z"
       transform="translate(-133.32283,-130.962)"
       fill="#ffffff"
       id="path3483" /><polygon
       points="717.646,566.955 725.514,520.131 781.058,477.961 808.131,505.035 "
       fill="#3f3d56"
       id="polygon3485" /><path
       d="M 807.03294,767.20732 H 617.03105 l 6.66385,-21.59187 v 0 c 41.3017,-14.95146 18.10249,-47.08878 57.38991,-66.73248 96.0948,-48.04741 133.297,-191.42584 119.2256,-248.10373 l 62.97293,-2.66264 c 0,0 86.96601,246.97033 -56.2504,339.09072 z"
       transform="translate(-133.32283,-130.962)"
       fill="#3f3d56"
       id="path3487" /><path
       d="m 969.24011,665.71012 a 31.93613,31.93613 0 0 1 -41.26779,0.77207 l -0.1235,-0.10145 -0.004,-0.1588 a 30.5991,30.5991 0 0 0 -1.22673,-7.80948 21.85993,21.85993 0 0 1 -0.79373,5.40552 l -0.15916,0.59276 -0.42679,-0.44059 c -0.3686,-0.3801 -0.72535,-0.76621 -1.06037,-1.1471 a 32.20586,32.20586 0 0 1 -4.90515,-7.4278 93.88529,93.88529 0 0 0 -26.0497,-32.46942 45.58123,45.58123 0 0 1 -5.4649,-5.25843 45.05344,45.05344 0 0 1 56.57619,-68.63908 l 0.28151,0.16481 -0.14618,0.29138 a 23.46809,23.46809 0 0 1 -4.1873,6.04 30.60544,30.60544 0 0 0 6.44891,-4.65918 l 0.20458,-0.19293 0.23182,0.15986 a 45.24493,45.24493 0 0 1 8.23895,7.33376 l 0.26263,0.3011 a 20.1126,20.1126 0 0 0 14.89315,6.87274 31.92614,31.92614 0 0 1 30.91485,37.40367 l -0.036,0.21093 -0.2052,0.0621 a 27.39642,27.39642 0 0 1 -11.15783,1.3922 31.12474,31.12474 0 0 0 9.93853,2.48923 l 0.4427,0.0351 -0.1405,0.4216 a 31.90481,31.90481 0 0 1 -9.20811,13.88347 l -0.12121,0.10606 c -0.043,0.0373 -0.086,0.0751 -0.12869,0.11264 a 31.35132,31.35132 0 0 0 -10.83089,21.76127 32.17035,32.17035 0 0 1 -10.78975,22.4919 z"
       transform="translate(-133.32283,-130.962)"
       fill="#6c63ff"
       id="path3489" /><path
       d="m 975.05222,655.44662 a 31.84413,31.84413 0 0 1 -0.35905,3.433 32.27636,32.27636 0 0 0 5.18891,-15.99059 c 0.0423,-0.87182 0.13383,-1.74027 0.25659,-2.60484 a 30.29057,30.29057 0 0 0 -5.08645,15.16243 z"
       transform="translate(-133.32283,-130.962)"
       opacity="0.15"
       id="path3491" /><path
       d="m 985.10047,616.63725 a 31.07694,31.07694 0 0 0 7.942,2.24554 31.95882,31.95882 0 0 0 2.91006,-3.55058 27.07953,27.07953 0 0 1 -10.85206,1.30504 z"
       transform="translate(-133.32283,-130.962)"
       opacity="0.15"
       id="path3493" /><path
       d="m 996.8045,606.15171 a 32.12049,32.12049 0 0 1 -0.22722,8.285 31.752,31.752 0 0 0 3.59372,-7.41116 l 0.1406,-0.42161 -0.4428,-0.0351 a 30.8607,30.8607 0 0 1 -3.0643,-0.41709 z"
       transform="translate(-133.32283,-130.962)"
       opacity="0.15"
       id="path3495" /><path
       d="m 993.85,575.84677 a 32.00121,32.00121 0 0 0 -23.43542,-10.83611 20.11266,20.11266 0 0 1 -14.8932,-6.87276 l -0.2626,-0.3011 a 45.24585,45.24585 0 0 0 -8.23894,-7.33375 l -0.23183,-0.15984 -0.20458,0.19291 a 30.605,30.605 0 0 1 -6.449,4.65918 23.46938,23.46938 0 0 0 4.18745,-6.04 l 0.1461,-0.29137 -0.28147,-0.16479 a 45.01994,45.01994 0 0 0 -66.70073,29.1457 45.02824,45.02824 0 0 1 61.87087,-16.58807 l 0.28147,0.16479 -0.1461,0.29137 a 23.46915,23.46915 0 0 1 -4.18745,6.04 30.60431,30.60431 0 0 0 6.449,-4.65917 l 0.20459,-0.19291 0.23182,0.15984 a 45.24585,45.24585 0 0 1 8.23894,7.33375 l 0.2626,0.3011 a 20.11269,20.11269 0 0 0 14.8932,6.87276 31.93166,31.93166 0 0 1 30.8822,26.2436 38.699,38.699 0 0 0 4.62118,-1.12451 l 0.2051,-0.0621 0.036,-0.21089 A 31.80343,31.80343 0 0 0 993.85,575.84677 Z"
       transform="translate(-133.32283,-130.962)"
       opacity="0.15"
       id="path3497" /><path
       d="m 1061.0733,444.374 a 102.83134,102.83134 0 0 1 -85.89207,101.41687 l -0.50791,0.0829 -0.393,-0.32747 a 98.52562,98.52562 0 0 0 -21.49007,-13.64148 70.38587,70.38587 0 0 1 11.38129,13.41421 l 1.09469,1.64537 -1.97284,0.0949 c -1.70285,0.0829 -3.395,0.12431 -5.02834,0.12431 a 103.69889,103.69889 0 0 1 -28.38967,-3.93633 c -41.95228,-11.936 -87.00283,-13.977 -133.89924,-6.06689 a 146.76531,146.76531 0 0 1 -24.33505,2.03032 c -79.96223,0 -145.01653,-65.06767 -145.01653,-145.04527 a 144.81484,144.81484 0 0 1 99.37786,-137.70726 l 0.99712,-0.33014 0.39363,0.97305 a 75.56556,75.56556 0 0 1 5.69865,22.96837 98.54689,98.54689 0 0 0 2.44934,-25.49991 l -0.0314,-0.90489 0.8795,-0.22054 a 145.68482,145.68482 0 0 1 35.25184,-4.32394 l 1.28649,0.005 a 64.76057,64.76057 0 0 0 48.28782,-21.39249 102.79916,102.79916 0 0 1 156.17525,4.7971 l 0.43306,0.536 -0.286,0.62821 c -6.00674,13.23916 -12.5508,22.88416 -20.362,29.93747 a 100.21813,100.21813 0 0 0 27.1533,-18.73531 l 1.02652,-0.99578 0.72043,1.23637 a 102.73045,102.73045 0 0 1 13.98503,51.78708 v 0.51861 c 0,0.18311 0,0.36757 0,0.55068 0,27.835 10.7637,54.217 29.5806,72.46316 a 103.58531,103.58531 0 0 1 31.4344,73.91741 z"
       transform="translate(-133.32283,-130.962)"
       fill="#6c63ff"
       id="path3499" /><g
       opacity="0.15"
       id="g3509"><path
         d="m 935.38412,201.41437 a 72.62637,72.62637 0 0 1 -12.95342,15.89063 99.96437,99.96437 0 0 0 20.239,-12.6496 q -3.57728,-1.7622 -7.28558,-3.24103 z"
         transform="translate(-133.32283,-130.962)"
         id="path3501" /><path
         d="m 994.89387,324.12985 a 103.22171,103.22171 0 0 1 14.78283,18.00929 105.08365,105.08365 0 0 1 -9.6184,-44.14573 c 0,-0.18314 0,-0.36759 0,-0.55067 v -0.51862 A 102.73113,102.73113 0 0 0 986.076,245.13705 l -0.72046,-1.2364 -1.02659,0.99577 a 100.44911,100.44911 0 0 1 -18.75086,14.27814 c 1.75,25.03002 12.2,48.35865 29.31578,64.95529 z"
         transform="translate(-133.32283,-130.962)"
         id="path3503" /><path
         d="m 965.31591,250.59739 -10e-4,0.51863 c -0.001,0.18308 -0.001,0.36753 -0.001,0.55066 0,1.00916 0.0183,2.01577 0.0465,3.02083 a 107.07093,107.07093 0 0 0 12.178,-20.99321 l 0.286,-0.62824 -0.433,-0.536 a 103.64161,103.64161 0 0 0 -18.59874,-17.988 102.96379,102.96379 0 0 1 6.52392,36.05533 z"
         transform="translate(-133.32283,-130.962)"
         id="path3505" /><path
         d="m 1029.6389,370.45657 a 92.95145,92.95145 0 0 1 -13.1033,-15.94191 102.70515,102.70515 0 0 1 -76.09938,144.94942 l -0.50793,0.0829 -0.39293,-0.32748 a 98.53044,98.53044 0 0 0 -21.49011,-13.6415 70.38382,70.38382 0 0 1 11.38121,13.41422 l 1.09473,1.6454 -1.97278,0.0949 c -1.70295,0.0829 -3.395,0.12431 -5.02835,0.12431 a 103.69869,103.69869 0 0 1 -28.38972,-3.93633 c -41.9523,-11.93593 -87.00286,-13.977 -133.89924,-6.06686 a 146.76782,146.76782 0 0 1 -24.335,2.03028 144.4054,144.4054 0 0 1 -96.34681,-36.74144 145.19723,145.19723 0 0 0 131.09185,83.06816 146.76686,146.76686 0 0 0 24.335,-2.03028 c 46.89638,-7.91009 91.94693,-5.86907 133.89923,6.06686 a 103.69834,103.69834 0 0 0 28.38973,3.93634 c 1.63329,0 3.32539,-0.0414 5.02834,-0.12432 l 1.97279,-0.0949 -1.09474,-1.6454 a 70.38382,70.38382 0 0 0 -11.38121,-13.41422 98.53,98.53 0 0 1 21.49011,13.64146 l 0.39294,0.32748 0.50792,-0.0829 a 102.75467,102.75467 0 0 0 54.45765,-175.33424 z"
         transform="translate(-133.32283,-130.962)"
         id="path3507" /></g><path
       d="m 545.79557,418.35655 c -5.53391,-5.96273 -8.40379,-14.91047 -5.46119,-22.49453 a 37.4811,37.4811 0 0 0 19.70041,16.55586 c 3.21091,1.15336 6.90231,2.10184 8.65525,5.02887 a 8.37852,8.37852 0 0 1 0.693,6.17286 24.88312,24.88312 0 0 1 -2.477,5.84718 l -0.004,0.52993 c -7.8135,-2.26421 -15.57237,-5.67744 -21.10627,-11.64017 z"
       transform="translate(-133.32283,-130.962)"
       fill="#6c63ff"
       id="path3511" /><path
       d="m 820.66745,591.30964 c -5.5339,-5.96273 -8.40378,-14.91046 -5.46118,-22.49452 a 37.48115,37.48115 0 0 0 19.70041,16.55588 c 3.21091,1.15336 6.90231,2.10184 8.65525,5.02887 a 8.37852,8.37852 0 0 1 0.693,6.17286 24.88312,24.88312 0 0 1 -2.477,5.84718 l -0.004,0.52993 c -7.81349,-2.26423 -15.57236,-5.67747 -21.10627,-11.6402 z"
       transform="translate(-133.32283,-130.962)"
       fill="#6c63ff"
       id="path3513" /><path
       d="m 950.27993,702.93648 c -3.86586,-7.15775 -4.40552,-16.53895 0.34116,-23.14544 a 37.48113,37.48113 0 0 0 14.93108,20.95866 c 2.82017,1.92011 6.15681,3.76208 7.12158,7.03463 a 8.37854,8.37854 0 0 1 -0.87361,6.14989 24.88366,24.88366 0 0 1 -3.86126,5.04138 l -0.13667,0.512 c -6.99844,-4.14728 -13.65642,-9.39337 -17.52228,-16.55112 z"
       transform="translate(-133.32283,-130.962)"
       fill="#6c63ff"
       id="path3515" /><path
       d="m 1043.7055,564.72842 c -3.8659,-7.15775 -4.4055,-16.53895 0.3412,-23.14544 a 37.4811,37.4811 0 0 0 14.931,20.95866 c 2.8202,1.92011 6.1568,3.76209 7.1216,7.03463 a 8.37858,8.37858 0 0 1 -0.8736,6.1499 24.88324,24.88324 0 0 1 -3.8613,5.04137 l -0.1366,0.512 c -6.9985,-4.14728 -13.6564,-9.39336 -17.5223,-16.55112 z"
       transform="translate(-133.32283,-130.962)"
       fill="#6c63ff"
       id="path3517" /><path
       d="m 432.96486,618.00416 c -3.86586,-7.15776 -4.40552,-16.539 0.34116,-23.14545 a 37.4811,37.4811 0 0 0 14.93108,20.95866 c 2.82017,1.92011 6.15681,3.76209 7.12158,7.03463 a 8.37853,8.37853 0 0 1 -0.87362,6.1499 24.88389,24.88389 0 0 1 -3.86125,5.04138 l -0.13668,0.512 c -6.99843,-4.14728 -13.65641,-9.39337 -17.52227,-16.55112 z"
       transform="translate(-133.32283,-130.962)"
       fill="#e6e6e6"
       id="path3519" /><path
       d="m 782.04986,686.54967 c 3.35737,-26.99708 20.08869,-53.597 45.83573,-62.38262 a 125.3441,125.3441 0 0 0 0.006,86.05715 c 3.95633,10.70172 9.471,22.19268 5.74957,32.9784 -2.31544,6.71118 -7.97986,11.84581 -14.31153,15.05637 -6.33207,3.21055 -13.35934,4.74076 -20.29867,6.24036 l -1.3657,1.12951 c -11.01587,-24.87484 -18.97277,-52.0821 -15.6154,-79.07917 z"
       transform="translate(-133.32283,-130.962)"
       fill="#e6e6e6"
       id="path3521" /><path
       d="m 828.14109,624.67753 a 107.13528,107.13528 0 0 0 -26.6337,60.29577 46.13628,46.13628 0 0 0 0.52479,14.44582 26.46115,26.46115 0 0 0 6.58123,12.27323 c 2.9663,3.25908 6.37791,6.24926 8.50032,10.17265 a 16.20217,16.20217 0 0 1 0.79156,13.22688 c -1.87387,5.37459 -5.56716,9.75534 -9.32778,13.91384 -4.17544,4.61721 -8.58557,9.34689 -10.36045,15.46809 -0.215,0.74167 -1.35329,0.36462 -1.13857,-0.37593 3.088,-10.64984 13.42617,-16.69916 18.35642,-26.29133 2.30055,-4.47588 3.26617,-9.67218 1.10944,-14.39694 -1.886,-4.13159 -5.40141,-7.21809 -8.43337,-10.492 a 28.236,28.236 0 0 1 -6.88215,-11.76082 42.65149,42.65149 0 0 1 -1.07825,-14.37234 103.94046,103.94046 0 0 1 7.5912,-31.58665 109.0351,109.0351 0 0 1 19.60593,-31.41952 c 0.51266,-0.57407 1.30269,0.32894 0.79338,0.89927 z"
       transform="translate(-133.32283,-130.962)"
       fill="#ffffff"
       id="path3523" /><path
       d="m 801.83013,677.71721 a 16.07373,16.07373 0 0 1 -12.23528,-16.83782 c 0.0611,-0.769 1.259,-0.71023 1.19784,0.0598 a 14.88393,14.88393 0 0 0 11.41337,15.63943 c 0.75062,0.17846 0.37039,1.316 -0.37593,1.13856 z"
       transform="translate(-133.32283,-130.962)"
       fill="#ffffff"
       id="path3525" /><path
       d="m 806.89173,710.238 a 30.98079,30.98079 0 0 0 13.83479,-17.84267 c 0.21767,-0.74088 1.356,-0.36405 1.13857,0.37593 A 32.22473,32.22473 0 0 1 807.431,711.30888 c -0.66488,0.39439 -1.20053,-0.67867 -0.53927,-1.07092 z"
       transform="translate(-133.32283,-130.962)"
       fill="#ffffff"
       id="path3527" /><path
       d="m 813.55,644.81908 a 9.09852,9.09852 0 0 0 8.62231,-0.43769 c 0.65955,-0.40263 1.19452,0.67091 0.53927,1.07091 a 10.19562,10.19562 0 0 1 -9.53751,0.50535 0.61965,0.61965 0 0 1 -0.38132,-0.75725 0.60255,0.60255 0 0 1 0.75725,-0.38132 z"
       transform="translate(-133.32283,-130.962)"
       fill="#ffffff"
       id="path3529" /><path
       d="m 906.36621,672.38711 c -0.40469,0.26312 -0.80937,0.52624 -1.21455,0.79948 A 119.82218,119.82218 0 0 0 889.831,685.14785 c -0.37455,0.334 -0.74909,0.67805 -1.11325,1.02208 a 126.31959,126.31959 0 0 0 -27.434,37.55371 122.67177,122.67177 0 0 0 -6.71952,17.38538 c -2.47949,8.2272 -4.51328,17.34486 -9.42136,24.07439 a 21.04417,21.04417 0 0 1 -1.63949,2.02391 h -44.35402 c -0.1008,-0.0506 -0.20209,-0.0911 -0.30339,-0.14169 l -1.77092,0.081 c 0.0711,-0.3137 0.15169,-0.63753 0.22285,-0.95124 0.0405,-0.18214 0.0909,-0.36428 0.13143,-0.54643 0.0301,-0.12143 0.0608,-0.24292 0.081,-0.35422 0.01,-0.0405 0.0203,-0.0809 0.0301,-0.1113 0.0203,-0.1113 0.0509,-0.21253 0.0711,-0.3137 q 0.6678,-2.71707 1.37612,-5.4342 c 0,-0.0101 0,-0.0101 0.01,-0.0203 3.63325,-13.793 8.44992,-27.40376 15.17932,-39.8508 0.20259,-0.37441 0.40469,-0.759 0.62753,-1.13338 a 117.05624,117.05624 0 0 1 10.51436,-15.94842 103.48284,103.48284 0 0 1 6.89147,-7.88311 86.05357,86.05357 0 0 1 21.53423,-16.13057 c 15.90815,-8.39922 34.32544,-11.61723 51.32658,-6.48661 0.43482,0.13153 0.86026,0.26303 1.29509,0.40472 z"
       transform="translate(-133.32283,-130.962)"
       fill="#e6e6e6"
       id="path3531" /><path
       d="m 906.26649,672.95005 a 107.13544,107.13544 0 0 0 -57.56774,32.10748 46.13617,46.13617 0 0 0 -8.27836,11.85014 26.46114,26.46114 0 0 0 -2.13459,13.76184 c 0.40623,4.38811 1.32992,8.82963 0.6624,13.24007 a 16.20224,16.20224 0 0 1 -7.33148,11.0375 c -4.73206,3.16311 -10.31846,4.43728 -15.8248,5.49345 -6.11374,1.17268 -12.48258,2.29387 -17.58511,6.1127 -0.61824,0.46271 -1.30005,-0.52365 -0.68274,-0.98565 8.87752,-6.64413 20.77408,-5.24987 30.48576,-9.94033 4.53165,-2.18865 8.43118,-5.75623 9.55378,-10.82718 0.98167,-4.43433 0.0331,-9.01527 -0.41665,-13.45477 a 28.23609,28.23609 0 0 1 1.58581,-13.53389 42.65167,42.65167 0 0 1 7.79222,-12.12469 103.94038,103.94038 0 0 1 25.07849,-20.64972 109.0353,109.0353 0 0 1 34.571,-13.28261 c 0.755,-0.14971 0.84208,1.047 0.092,1.19568 z"
       transform="translate(-133.32283,-130.962)"
       fill="#ffffff"
       id="path3533" /><path
       d="m 853.32511,699.45826 a 16.07372,16.07372 0 0 1 0.36835,-20.81054 c 0.51179,-0.57725 1.43285,0.19093 0.92038,0.76895 a 14.88393,14.88393 0 0 0 -0.30307,19.35885 c 0.49188,0.59441 -0.4966,1.27376 -0.98566,0.68274 z"
       transform="translate(-133.32283,-130.962)"
       fill="#ffffff"
       id="path3535" /><path
       d="m 837.78678,728.47169 a 30.98081,30.98081 0 0 0 21.78882,-5.91687 c 0.61986,-0.4605 1.30186,0.52571 0.68275,0.98566 a 32.22471,32.22471 0 0 1 -22.68576,6.111 c -0.76832,-0.0854 -0.54995,-1.26467 0.21419,-1.17974 z"
       transform="translate(-133.32283,-130.962)"
       fill="#ffffff"
       id="path3537" /><path
       d="m 882.48972,680.24712 a 9.09851,9.09851 0 0 0 7.14795,4.84175 c 0.769,0.0756 0.54983,1.25487 -0.21419,1.17974 a 10.19561,10.19561 0 0 1 -7.91942,-5.33875 0.61965,0.61965 0 0 1 0.15146,-0.8342 0.60253,0.60253 0 0 1 0.8342,0.15146 z"
       transform="translate(-133.32283,-130.962)"
       fill="#ffffff"
       id="path3539" /><polygon
       points="428.807,590.322 423.592,559.289 386.779,531.34 368.836,549.283 "
       fill="#3f3d56"
       id="polygon3541" /><path
       d="m 591.24832,767.20732 h 125.9266 L 712.75836,752.897 v 0 c -27.37333,-9.90931 -11.9977,-31.20879 -38.036,-44.228 -63.68827,-31.84413 -88.3446,-126.87034 -79.01856,-164.43446 l -41.73625,-1.76471 c 0,0 -57.63806,163.68332 37.28077,224.73749 z"
       transform="translate(-133.32283,-130.962)"
       fill="#3f3d56"
       id="path3543" /><path
       d="m 476.592,685.0317 a 20.77856,20.77856 0 0 0 -7.17833,-14.42261 c -0.0283,-0.0249 -0.0568,-0.05 -0.0853,-0.0747 l -0.0803,-0.0703 a 21.14542,21.14542 0 0 1 -6.10282,-9.20148 l -0.0931,-0.27942 0.29345,-0.0233 a 20.62843,20.62843 0 0 0 6.58691,-1.64977 18.15748,18.15748 0 0 1 -7.395,-0.92271 l -0.136,-0.0412 -0.024,-0.13979 a 21.15953,21.15953 0 0 1 20.48932,-24.78985 13.32989,13.32989 0 0 0 9.87066,-4.555 l 0.17406,-0.19956 a 29.98723,29.98723 0 0 1 5.46049,-4.86056 l 0.15365,-0.10594 0.13558,0.12786 a 20.2843,20.2843 0 0 0 4.27412,3.08795 15.55377,15.55377 0 0 1 -2.7752,-4.00312 l -0.0969,-0.19312 0.18657,-0.10923 a 29.85984,29.85984 0 0 1 37.49672,45.49158 30.209,30.209 0 0 1 -3.62195,3.48511 62.22387,62.22387 0 0 0 -17.26483,21.51959 21.34447,21.34447 0 0 1 -3.251,4.92289 c -0.222,0.25244 -0.45848,0.50834 -0.70277,0.76025 l -0.28286,0.292 -0.10549,-0.39287 a 14.48749,14.48749 0 0 1 -0.52605,-3.58259 20.28,20.28 0 0 0 -0.813,5.17585 l -0.003,0.10525 -0.0819,0.0672 A 21.15038,21.15038 0 0 1 476.592,685.0317 Z"
       transform="translate(-133.32283,-130.962)"
       fill="#e6e6e6"
       id="path3545" /><path
       d="m 479.891,693.13624 a 21.10374,21.10374 0 0 0 0.238,2.27524 21.39156,21.39156 0 0 1 -3.439,-10.598 c -0.0281,-0.57781 -0.0887,-1.15339 -0.17006,-1.72639 a 20.07549,20.07549 0 0 1 3.37106,10.04915 z"
       transform="translate(-133.32283,-130.962)"
       opacity="0.15"
       id="path3547" /><path
       d="m 473.23139,667.41475 a 20.59681,20.59681 0 0 1 -5.2637,1.48826 21.18121,21.18121 0 0 1 -1.92868,-2.3532 17.94749,17.94749 0 0 0 7.19238,0.86494 z"
       transform="translate(-133.32283,-130.962)"
       opacity="0.15"
       id="path3549" /><path
       d="m 465.47437,660.46529 a 21.28854,21.28854 0 0 0 0.15059,5.491 21.04389,21.04389 0 0 1 -2.3818,-4.91186 l -0.0932,-0.27943 0.29346,-0.0233 a 20.45233,20.45233 0 0 0 2.03091,-0.27642 z"
       transform="translate(-133.32283,-130.962)"
       opacity="0.15"
       id="path3551" /><path
       d="m 467.43251,640.38024 a 21.20931,21.20931 0 0 1 15.53218,-7.18179 13.33,13.33 0 0 0 9.87069,-4.555 l 0.17405,-0.19956 a 29.98711,29.98711 0 0 1 5.46048,-4.86055 l 0.15364,-0.10593 0.13559,0.12785 a 20.28412,20.28412 0 0 0 4.27415,3.08794 15.55463,15.55463 0 0 1 -2.77529,-4.0032 l -0.0968,-0.19311 0.18655,-0.10921 a 29.83764,29.83764 0 0 1 44.20691,19.31675 29.84315,29.84315 0 0 0 -41.00585,-10.994 l -0.18655,0.10921 0.0968,0.19311 a 15.55457,15.55457 0 0 0 2.77529,4.00312 20.28372,20.28372 0 0 1 -4.27415,-3.08793 l -0.13559,-0.12786 -0.15364,0.10594 a 29.98711,29.98711 0 0 0 -5.46048,4.86055 l -0.174,0.19956 a 13.33,13.33 0 0 1 -9.87069,4.555 21.16319,21.16319 0 0 0 -20.46764,17.39334 25.64845,25.64845 0 0 1 -3.06273,-0.74529 l -0.136,-0.0412 -0.0241,-0.13977 a 21.07819,21.07819 0 0 1 4.95715,-17.60798 z"
       transform="translate(-133.32283,-130.962)"
       opacity="0.15"
       id="path3553" /><path
       d="m 443.7129,504.25479 c 12.47115,-12.09288 19.605,-29.578 19.605,-48.026 0,-0.12136 0,-0.24361 -8.9e-4,-0.365 l -8.8e-4,-0.34372 a 68.08611,68.08611 0 0 1 9.26876,-34.32266 l 0.47748,-0.81943 0.68034,0.66 a 66.42122,66.42122 0 0 0 17.99625,12.41711 c -5.177,-4.67469 -9.51414,-11.06706 -13.4952,-19.84151 l -0.18957,-0.41635 0.287,-0.35523 a 68.13168,68.13168 0 0 1 103.50749,-3.17935 42.92106,42.92106 0 0 0 32.00348,14.17819 l 0.85264,-0.004 a 96.55461,96.55461 0 0 1 23.36369,2.86576 l 0.58289,0.14617 -0.0208,0.59972 a 65.31311,65.31311 0 0 0 1.62334,16.90045 50.0824,50.0824 0 0 1 3.77686,-15.22263 l 0.26089,-0.6449 0.66085,0.2188 a 96.14585,96.14585 0 0 1 -30.24771,187.39845 97.27086,97.27086 0 0 1 -16.12842,-1.34563 c -31.0813,-5.24252 -60.93923,-3.88981 -88.74373,4.02093 a 68.728,68.728 0 0 1 -18.81568,2.60885 c -1.08252,0 -2.204,-0.0275 -3.33261,-0.0824 l -1.30753,-0.0629 0.72552,-1.09049 a 46.64968,46.64968 0 0 1 7.5431,-8.8905 65.29981,65.29981 0 0 0 -14.24286,9.0411 l -0.26045,0.217 -0.33662,-0.0549 A 68.1022,68.1022 0 0 1 443.7129,504.25479 Z"
       transform="translate(-133.32283,-130.962)"
       fill="#e6e6e6"
       id="path3555" /><g
       opacity="0.15"
       id="g3565"><path
         d="m 506.18165,392.21954 a 48.13413,48.13413 0 0 0 8.58507,10.53177 66.25271,66.25271 0 0 1 -13.4137,-8.38372 q 2.3709,-1.16792 4.82863,-2.14805 z"
         transform="translate(-133.32283,-130.962)"
         id="path3557" /><path
         d="m 466.74067,473.55107 a 68.41147,68.41147 0 0 0 -9.79756,11.93593 69.6458,69.6458 0 0 0 6.37475,-29.25825 c 0,-0.12137 0,-0.24362 -8.8e-4,-0.365 l -8.7e-4,-0.34372 a 68.08661,68.08661 0 0 1 9.26871,-34.32266 l 0.4775,-0.81944 0.68039,0.66 a 66.57423,66.57423 0 0 0 12.42741,9.46305 c -1.15982,16.58902 -8.08571,32.05042 -19.42945,43.05009 z"
         transform="translate(-133.32283,-130.962)"
         id="path3559" /><path
         d="m 486.34391,424.81634 8.7e-4,0.34372 c 8.8e-4,0.12134 8.8e-4,0.24359 8.8e-4,0.365 0,0.66884 -0.0121,1.336 -0.0308,2.0021 a 70.9624,70.9624 0 0 1 -8.07116,-13.91357 l -0.18953,-0.41637 0.287,-0.35522 a 68.6901,68.6901 0 0 1 12.32659,-11.92181 68.24082,68.24082 0 0 0 -4.32385,23.89615 z"
         transform="translate(-133.32283,-130.962)"
         id="path3561" /><path
         d="m 443.71287,504.25481 a 61.60525,61.60525 0 0 0 8.6844,-10.56575 68.06938,68.06938 0 0 0 50.436,96.06741 l 0.33664,0.0549 0.26042,-0.217 a 65.30294,65.30294 0 0 1 14.24289,-9.04109 46.648,46.648 0 0 0 -7.54306,8.89048 l -0.72555,1.09052 1.30749,0.0629 c 1.12865,0.0549 2.25012,0.0824 3.33261,0.0824 a 68.728,68.728 0 0 0 18.81572,-2.60886 c 27.80451,-7.91072 57.66244,-9.26344 88.74372,-4.0209 a 97.27265,97.27265 0 0 0 16.1284,1.34559 95.70685,95.70685 0 0 0 63.85529,-24.35094 96.23166,96.23166 0 0 1 -86.88309,55.05468 97.27254,97.27254 0 0 1 -16.12839,-1.3456 c -31.08128,-5.24254 -60.93921,-3.88982 -88.74373,4.0209 a 68.72762,68.72762 0 0 1 -18.81572,2.60886 c -1.08249,0 -2.204,-0.0275 -3.33261,-0.0824 l -1.30749,-0.0629 0.72555,-1.09052 a 46.6477,46.6477 0 0 1 7.54307,-8.89047 65.302,65.302 0 0 0 -14.24289,9.04108 l -0.26043,0.217 -0.33663,-0.0549 A 68.10219,68.10219 0 0 1 443.71285,504.25481 Z"
         transform="translate(-133.32283,-130.962)"
         id="path3563" /></g><path
       d="m 181.78693,693.57171 a 46.53387,46.53387 0 0 1 -45.89381,-38.86844 l -0.0375,-0.22984 0.14819,-0.17783 a 44.58573,44.58573 0 0 0 6.17313,-9.72482 31.85183,31.85183 0 0 1 -6.07031,5.15032 l -0.74457,0.49537 -0.0429,-0.89276 c -0.0375,-0.77058 -0.0563,-1.53632 -0.0563,-2.27545 a 46.92613,46.92613 0 0 1 1.7813,-12.84708 c 5.40133,-18.98451 6.32494,-39.37107 2.74542,-60.59294 a 66.4154,66.4154 0 0 1 -0.91877,-11.01225 65.647,65.647 0 0 1 127.953,-20.6527 l 0.1494,0.45122 -0.44033,0.17813 a 34.195,34.195 0 0 1 -10.39379,2.57879 44.5956,44.5956 0 0 0 11.53938,1.1084 l 0.40949,-0.0142 0.0998,0.398 a 65.9264,65.9264 0 0 1 1.95669,15.95239 l -0.002,0.58217 a 29.30588,29.30588 0 0 0 9.68066,21.85152 46.51931,46.51931 0 0 1 -2.17081,70.67341 l -0.24255,0.196 -0.28428,-0.12944 c -5.99107,-2.71821 -10.35568,-5.67957 -13.54749,-9.21433 a 45.35125,45.35125 0 0 0 8.47822,12.28758 l 0.45061,0.46453 -0.55948,0.326 a 46.48835,46.48835 0 0 1 -23.435,6.32857 l -0.23469,-6e-4 c -0.0829,-6.1e-4 -0.16633,-6.1e-4 -0.2492,-6.1e-4 a 45.68174,45.68174 0 0 0 -32.79148,13.386 46.8751,46.8751 0 0 1 -33.44962,14.22491 z"
       transform="translate(-133.32283,-130.962)"
       fill="#e4e4e4"
       id="path3567" /><path
       d="m 165.32242,766.87579 a 0.83963,0.83963 0 0 1 -0.83024,-0.72133 c -0.0357,-0.25064 -3.52987,-25.45125 -0.39168,-58.94392 2.89813,-30.93128 12.2052,-75.48322 40.08556,-112.073 a 0.8397,0.8397 0 1 1 1.33577,1.01789 c -27.63955,36.27382 -36.87159,80.49885 -39.7493,111.21174 -3.11994,33.29778 0.34686,58.30187 0.38226,58.5506 a 0.84042,0.84042 0 0 1 -0.83237,0.958 z"
       transform="translate(-133.32283,-130.962)"
       fill="#3f3d56"
       id="path3569" /><path
       d="m 179.25973,643.51939 a 0.83968,0.83968 0 0 1 -0.49432,-1.51891 115.72848,115.72848 0 0 1 25.54859,-13.00565 c 14.09564,-5.1605 35.53016,-9.83884 57.59661,-2.81586 a 0.83958,0.83958 0 1 1 -0.50921,1.60008 c -21.61437,-6.87866 -42.66035,-2.27767 -56.51,2.7929 a 113.82664,113.82664 0 0 0 -25.13877,12.787 0.83639,0.83639 0 0 1 -0.4929,0.16044 z"
       transform="translate(-133.32283,-130.962)"
       fill="#3f3d56"
       id="path3571" /><path
       d="m 269.26112,608.67509 a 6.87435,6.87435 0 0 0 4.40447,-9.57676 l 14.81486,-48.3 -10.8969,-2.16008 -13.54964,47.34412 a 6.91164,6.91164 0 0 0 5.22721,12.69273 z"
       transform="translate(-133.32283,-130.962)"
       fill="#ffb6b6"
       id="path3573" /><path
       d="m 289.34367,536.687 a 7.93787,7.93787 0 0 0 -4.94,-0.3 v 0.01 a 7.08517,7.08517 0 0 0 -1.59,0.59 7.4416,7.4416 0 0 0 -1.54,1.01 7.78323,7.78323 0 0 0 -2.28,3.16 l -7.22,12.58 a 2.83882,2.83882 0 0 0 -0.22,2.38 2.86762,2.86762 0 0 0 1.66,1.73 l 1.56,0.61 7.41,2.91 2.73,1.08 1.84,0.72 a 2.86843,2.86843 0 0 0 3.85,-2.03 l 3.26,-14.09 a 8.00448,8.00448 0 0 0 -4.52,-10.36 z"
       transform="translate(-133.32283,-130.962)"
       fill="#3f3d56"
       id="path3575" /><polygon
       points="177.492,593.969 177.492,623.065 185.036,623.065 188.626,593.969 "
       fill="#ffb6b6"
       id="polygon3577" /><path
       d="m 306.8338,767.097 h 5.40962 l 0.96558,-5.10736 2.47305,5.10736 h 14.34774 a 3.22522,3.22522 0 0 0 1.83267,-5.87931 l -11.45764,-7.913 v -5.16338 l -12.05145,0.7193 z"
       transform="translate(-133.32283,-130.962)"
       fill="#2f2e41"
       id="path3579" /><polygon
       points="118.972,583.072 104.13,608.098 110.618,611.946 128.548,588.751 "
       fill="#ffb6b6"
       id="polygon3581" /><path
       d="m 227.36155,748.2712 4.65292,2.75941 3.43574,-3.90041 -0.4781,5.65443 12.34076,7.31867 a 3.22522,3.22522 0 0 0 4.57531,-4.12207 l -5.81856,-12.65062 2.63381,-4.44112 -10.7326,-5.52868 z"
       transform="translate(-133.32283,-130.962)"
       fill="#2f2e41"
       id="path3583" /><polygon
       points="154.283,438.402 180.859,437.027 184.525,460.396 149.7,460.855 "
       fill="#ffb6b6"
       id="polygon3585" /><path
       d="m 317.98191,591.063 9.94661,24.12267 0.72455,64.50994 -8.48793,61.59358 h -9.39344 l -3.84858,-60.58947 -9.466,-41.45768 -9.336,43.36044 -29.02874,42.44132 H 244.828 l 26.225,-46.76892 3.03511,-50.94647 c 0,0 -1.89173,-21.6128 7.78968,-34.36624 l 2.35654,-6.80823 z"
       transform="translate(-133.32283,-130.962)"
       fill="#2f2e41"
       id="path3587" /><path
       d="m 318.46366,546.46707 c -0.02,-0.21 -0.05,-0.43006 -0.09,-0.64 a 19.27541,19.27541 0 0 0 -21.83,-16.23 19.67939,19.67939 0 0 0 -12.14,6.79 v 0.01 c -0.16,0.19 -0.31,0.38995 -0.46,0.59 -0.27,0.34 -0.52,0.7 -0.76,1.06 a 19.29111,19.29111 0 0 0 -3.2,11.06 v 0.01 a 19.05736,19.05736 0 0 0 0.63,4.48 71.76481,71.76481 0 0 1 1.57,7.77 c 0.26,1.66 0.46,3.29 0.61,4.88 0.09,0.8 0.16,1.59 0.22,2.36 v 0.01 c 0.3,3.81 0.4,7.23 0.49,9.88 0.04,1.44 0.08,2.64 0.15,3.56 a 1.10085,1.10085 0 0 0 0.02,0.18 3.03306,3.03306 0 0 0 0.76,1.66 1.44649,1.44649 0 0 0 0.17,0.18 3.58138,3.58138 0 0 0 1.56,0.82 3.07976,3.07976 0 0 0 0.61,0.06 h 0.0601 l 5.82995,-2.72 4.6,-2.14 15.61,-7.28 a 3.14161,3.14161 0 0 0 2.9,-2.1 v -0.01 c 0.02,-0.08 0.05,-0.16 0.07,-0.25 0.84,-3.31 2.33,-6.86 2.86,-12.57 0.07,-0.82 0.13,-1.67 0.16,-2.58 v -0.01 a 58.96277,58.96277 0 0 0 -0.40001,-8.83 z"
       transform="translate(-133.32283,-130.962)"
       fill="#3f3d56"
       id="path3589" /><circle
       cx="163.4613"
       cy="380.74854"
       r="14.72438"
       fill="#ffb6b6"
       id="circle3591" /><path
       d="m 281.0637,534.59707 a 11.715,11.715 0 0 0 -11.7,11.69995 v 24.25 a 11.68613,11.68613 0 0 0 9.53,11.49 h 0.01 a 11.80527,11.80527 0 0 0 2.16,0.2 h 16.2 v -47.64 z"
       transform="translate(-133.32283,-130.962)"
       fill="#6c63ff"
       id="path3593" /><path
       d="m 281.27366,536.987 v 17.69 a 2.04,2.04 0 1 0 4.08,0 v -17.69 z"
       transform="translate(-133.32283,-130.962)"
       fill="#3f3d56"
       id="path3595" /><path
       d="m 290.26371,566.247 h -11.86005 a 2.57134,2.57134 0 0 0 -2.56994,2.58 v 7.09 a 2.57769,2.57769 0 0 0 2.56994,2.58 h 11.86005 a 2.58625,2.58625 0 0 0 2.58,-2.58 v -7.09 a 2.57986,2.57986 0 0 0 -2.58,-2.58 z"
       transform="translate(-133.32283,-130.962)"
       fill="#3f3d56"
       id="path3597" /><path
       d="m 312.17265,564.0041 a 22.53848,22.53848 0 0 0 4.82975,-14.43177 c 0,-10.50683 -6.25824,-19.0545 -13.95062,-19.0545 -4.12979,0 -8.02051,2.4682 -10.67463,6.77162 l 1.15834,0.71441 c 2.40076,-3.89238 5.86931,-6.125 9.51629,-6.125 6.94192,0 12.58959,7.93727 12.58959,17.69347 a 21.16456,21.16456 0 0 1 -4.50711,13.55188 z"
       transform="translate(-133.32283,-130.962)"
       fill="#6c63ff"
       id="path3599" /><path
       d="m 344.25973,599.58141 a 6.8744,6.8744 0 0 0 -4.24811,-9.64714 l -26.33132,-43.1165 -8.84247,6.72453 26.45474,41.53559 a 6.91164,6.91164 0 0 0 12.96716,4.50352 z"
       transform="translate(-133.32283,-130.962)"
       fill="#ffb6b6"
       id="path3601" /><path
       d="m 322.82371,552.07705 -4.45,-6.25 -2.38,-3.34 -1.55,-2.18 a 7.92147,7.92147 0 0 0 -1.99,-2.5 7.997,7.997 0 0 0 -12.28,9.72 l 4.62,13.75 a 2.88512,2.88512 0 0 0 4.04,1.64 l 1.49,-0.76 2.35,-1.2 2.11,-1.07 h 0.01 l 3.91,-2 1.33,-0.67 1.76,-0.9 a 2.8905,2.8905 0 0 0 1.03,-4.24 z"
       transform="translate(-133.32283,-130.962)"
       fill="#3f3d56"
       id="path3603" /><path
       d="M 1018.6535,768.07224 H 136.18221 a 0.91935,0.91935 0 1 1 0,-1.83869 h 882.47129 a 0.919345,0.919345 0 0 1 0,1.83869 z"
       transform="translate(-133.32283,-130.962)"
       fill="#cccccc"
       id="path3605" /><path
       d="m 602.96486,691.00416 c -3.86586,-7.15776 -4.40552,-16.539 0.34116,-23.14545 a 37.4811,37.4811 0 0 0 14.93108,20.95866 c 2.82017,1.92011 6.15681,3.76209 7.12158,7.03463 a 8.37853,8.37853 0 0 1 -0.87362,6.1499 24.88389,24.88389 0 0 1 -3.86125,5.04138 l -0.13668,0.512 c -6.99843,-4.14728 -13.65641,-9.39337 -17.52227,-16.55112 z"
       transform="translate(-133.32283,-130.962)"
       fill="#e6e6e6"
       id="path3607" /><path
       d="m 365.96486,510.00416 c -3.86586,-7.15776 -4.40552,-16.539 0.34116,-23.14545 a 37.4811,37.4811 0 0 0 14.93108,20.95866 c 2.82017,1.92011 6.15681,3.76209 7.12158,7.03463 a 8.37853,8.37853 0 0 1 -0.87362,6.1499 24.88389,24.88389 0 0 1 -3.86125,5.04138 l -0.13668,0.512 c -6.99843,-4.14728 -13.65641,-9.39337 -17.52227,-16.55112 z"
       transform="translate(-133.32283,-130.962)"
       fill="#e6e6e6"
       id="path3609" /><path
       d="m 287.80369,499.6967 v 0.0104 a 7.4017,7.4017 0 0 1 -0.24309,1.89826 c -0.0259,0.10864 -0.0569,0.22241 -0.0931,0.33105 v 0.005 a 7.50863,7.50863 0 0 1 -4.62929,4.8207 c -0.16034,0.0621 -0.32586,0.11377 -0.49138,0.16034 a 6.70942,6.70942 0 0 1 -1.06552,0.21723 6.79829,6.79829 0 0 1 -0.97759,0.0673 7.44528,7.44528 0 0 1 -0.76551,-0.0362 7.2432,7.2432 0 0 1 -1.7431,-0.39829 2.19148,2.19148 0 0 1 -0.25862,-0.0931 1.26189,1.26189 0 0 1 -0.12417,-0.0517 7.50745,7.50745 0 0 1 -3.87413,-10.16381 l 0.005,-0.005 a 7.357,7.357 0 0 1 1.47416,-2.069 7.47269,7.47269 0 0 1 5.28619,-2.18274 2.81474,2.81474 0 0 1 0.29483,0.0103 7.529,7.529 0 0 1 5.80343,3.12934 7.41336,7.41336 0 0 1 1.21036,2.66895 7.51091,7.51091 0 0 1 0.19138,1.68106 z"
       transform="translate(-133.32283,-130.962)"
       fill="#2f2e41"
       id="path3611" /><path
       d="m 279.14845,495.14835 a 12.24543,12.24543 0 0 0 -23.19321,-1.4379 c -1.61105,3.99645 -1.02053,8.53123 -1.98556,12.73073 a 17.989,17.989 0 0 1 -17.07156,13.53791 l 14.59735,5.88183 a 9.56424,9.56424 0 0 0 5.05224,1.02345 c 2.53994,-0.43049 4.3073,-2.8565 5.02284,-5.33129 0.71554,-2.47479 0.65749,-5.10308 1.11039,-7.63912 a 19.50126,19.50126 0 0 1 11.32568,-14.24144 c 1.64349,-0.70229 3.47,-1.23158 4.63211,-2.58946 1.16211,-1.35788 1.09738,-3.91949 -0.58681,-4.51763"
       transform="translate(-133.32283,-130.962)"
       fill="#2f2e41"
       id="path3613" /><path
       d="m 302.80369,495.20706 c -1.98014,-4.32665 -7.20471,-3.44632 -11.9286,-2.8756 a 14.68148,14.68148 0 0 0 -10.99993,8.16278 20.06231,20.06231 0 0 0 -1.08779,13.92619 15.25754,15.25754 0 0 0 4.81732,8.12109 c 2.4948,2.00632 14.2227,6.75132 15.199,2.66554 -1.22046,5.33037 1.23489,4.496 4.8694,8.58166 1.88249,-5.65493 2.765,-16.30985 4.64746,-21.96477 l 0.8501,-2.55367 c 0.59731,-1.79428 1.19548,-3.59159 1.62709,-5.43277 0.54219,-2.3129 0.75085,-4.96508 -0.68583,-6.857 -1.43668,-1.89192 -5.05593,-1.96552 -5.78207,0.29637"
       transform="translate(-133.32283,-130.962)"
       fill="#2f2e41"
       id="path3615" /><path
       d="m 300.43308,513.21389 -0.62939,-4.00683 c 0.42773,-4.9834 -0.27051,-12.91016 3,-14 l 2,2 c -1.26514,0.42187 -3.67139,7.87402 -4.37061,16.00683 z"
       transform="translate(-133.32283,-130.962)"
       fill="#ff6584"
       id="path3617" /></g></svg>
