<?xml version="1.0" encoding="UTF-8" standalone="no"?>
<svg
   data-name="Layer 1"
   width="744"
   height="539.28592"
   viewBox="0 0 744 539.28592"
   version="1.1"
   id="svg251"
   sodipodi:docname="undraw_savings_re_eq4w.svg"
   xml:space="preserve"
   inkscape:version="1.2.2 (b0a8486541, 2022-12-01)"
   xmlns:inkscape="http://www.inkscape.org/namespaces/inkscape"
   xmlns:sodipodi="http://sodipodi.sourceforge.net/DTD/sodipodi-0.dtd"
   xmlns="http://www.w3.org/2000/svg"
   xmlns:svg="http://www.w3.org/2000/svg"><defs
     id="defs255" /><sodipodi:namedview
     id="namedview253"
     pagecolor="#505050"
     bordercolor="#eeeeee"
     borderopacity="1"
     inkscape:showpageshadow="0"
     inkscape:pageopacity="0"
     inkscape:pagecheckerboard="0"
     inkscape:deskcolor="#505050"
     showgrid="false"
     inkscape:zoom="0.65312309"
     inkscape:cx="293.97215"
     inkscape:cy="352.15414"
     inkscape:window-width="1366"
     inkscape:window-height="703"
     inkscape:window-x="0"
     inkscape:window-y="0"
     inkscape:window-maximized="1"
     inkscape:current-layer="svg251" /><path
     d="m 702.11417,584.643 v 130 H 376.41542 c -37.109,0 -67.30125,-29.15983 -67.30125,-65 0,-35.84017 30.19221,-65 67.30125,-65 z"
     transform="translate(-228,-180.35704)"
     fill="#f2f2f2"
     id="path185"
     style="display:none" /><path
     d="m 710.11417,713.643 a 5.002,5.002 0 0 1 -5,5 h -334.5 a 68.5,68.5 0 1 1 0,-137 h 334.5 a 5,5 0 0 1 0,10 h -334.5 a 58.5,58.5 0 1 0 0,117 h 334.5 a 5.002,5.002 0 0 1 5,5 z"
     transform="translate(-228,-180.35704)"
     fill="#6c63ff"
     id="path187"
     style="display:none" /><path
     d="m 702.11417,614.643 h -350 a 1,1 0 1 1 0,-2 h 350 a 1,1 0 0 1 0,2 z"
     transform="translate(-228,-180.35704)"
     fill="#cccccc"
     id="path189"
     style="display:none" /><path
     d="m 702.11417,638.643 h -350 a 1,1 0 1 1 0,-2 h 350 a 1,1 0 0 1 0,2 z"
     transform="translate(-228,-180.35704)"
     fill="#cccccc"
     id="path191"
     style="display:none" /><path
     d="m 702.11417,662.643 h -350 a 1,1 0 1 1 0,-2 h 350 a 1,1 0 0 1 0,2 z"
     transform="translate(-228,-180.35704)"
     fill="#cccccc"
     id="path193"
     style="display:none" /><path
     d="m 702.11417,686.643 h -350 a 1,1 0 1 1 0,-2 h 350 a 1,1 0 0 1 0,2 z"
     transform="translate(-228,-180.35704)"
     fill="#cccccc"
     id="path195"
     style="display:none" /><path
     d="M 953.83158,609.11391 872.26685,710.34235 618.65167,505.99212 c -28.89608,-23.283 -34.11066,-64.9324 -11.62379,-92.84043 22.48687,-27.90803 64.29244,-31.671 93.18852,-8.388 z"
     transform="translate(-228,-180.35704)"
     fill="#f2f2f2"
     id="path197"
     style="display:none" /><path
     d="m 879.12372,714.583 a 5.002,5.002 0 0 1 -7.03051,0.7563 L 611.62467,505.467 a 68.500002,68.500002 0 0 1 85.95667,-106.6792 l 260.46854,209.87234 a 5,5 0 1 1 -6.27421,7.7868 L 691.30713,406.57463 a 58.5,58.5 0 1 0 -73.40825,91.10558 l 260.46854,209.87232 a 5.002,5.002 0 0 1 0.7563,7.03047 z"
     transform="translate(-228,-180.35704)"
     fill="#cccccc"
     id="path199"
     style="display:none" /><path
     d="M 935.009,632.47432 662.47086,412.877 a 1.0000023,1.0000023 0 1 1 1.25485,-1.55736 L 936.26379,630.917 a 1,1 0 1 1 -1.25484,1.55736 z"
     transform="translate(-228,-180.35704)"
     fill="#cccccc"
     id="path201"
     style="display:none" /><path
     d="M 919.95085,651.16265 647.41276,431.56531 a 1,1 0 0 1 1.25484,-1.55736 l 272.53809,219.59734 a 1,1 0 1 1 -1.25484,1.55736 z"
     transform="translate(-228,-180.35704)"
     fill="#cccccc"
     id="path203"
     style="display:none" /><path
     d="M 904.89274,669.851 632.35466,450.25364 a 1.0000031,1.0000031 0 0 1 1.25484,-1.55737 l 272.53809,219.59734 a 1.0000023,1.0000023 0 1 1 -1.25485,1.55736 z"
     transform="translate(-228,-180.35704)"
     fill="#cccccc"
     id="path205"
     style="display:none" /><path
     d="M 889.83464,688.5393 617.29655,468.942 a 1.0000023,1.0000023 0 1 1 1.25485,-1.55736 l 272.53808,219.5973 a 1,1 0 1 1 -1.25484,1.55736 z"
     transform="translate(-228,-180.35704)"
     fill="#cccccc"
     id="path207"
     style="display:none" /><path
     d="M 971,719.643 H 229 a 1,1 0 0 1 0,-2 h 742 a 1,1 0 0 1 0,2 z"
     transform="translate(-228,-180.35704)"
     fill="#cccccc"
     id="path209"
     style="display:none" /><polygon
     points="326.649,390.621 321.212,346.525 338.085,346.527 338.081,390.622 "
     fill="#ffb8b8"
     id="polygon211"
     style="display:none" /><path
     d="m 318.48241,387.35454 h 22.04781 v 13.88195 h -35.92974 v 0 a 13.88193,13.88193 0 0 1 13.88193,-13.88195 z"
     fill="#2f2e41"
     id="path213"
     style="display:none" /><polygon
     points="209.854,390.621 204.417,346.525 221.29,346.527 221.286,390.622 "
     fill="#ffb8b8"
     id="polygon215"
     style="display:none" /><path
     d="m 201.68787,387.35454 h 22.04781 v 13.88195 h -35.92974 v 0 a 13.88193,13.88193 0 0 1 13.88193,-13.88195 z"
     fill="#2f2e41"
     id="path217"
     style="display:none" /><path
     d="m 487.47085,243.89011 v -5.00006 a 32.25,32.25 0 0 1 32.25,-32.25 h 6e-5 a 32.25,32.25 0 0 1 32.25,32.25 v 5.00006 a 23.25,23.25 0 0 1 -23.25,23.25 h -18 a 23.25,23.25 0 0 1 -23.25006,-23.25 z"
     transform="translate(-228,-180.35704)"
     fill="#2f2e41"
     id="path219"
     style="display:none" /><circle
     cx="291.72086"
     cy="63.94249"
     r="24.561029"
     fill="#ffb8b8"
     id="circle221"
     style="display:none" /><path
     d="M 634.4877,376.4751"
     transform="translate(-228,-180.35704)"
     fill="#ffb8b8"
     id="path223"
     style="display:none" /><path
     d="m 386.12458,328.7126 a 9.377,9.377 0 0 1 14.28028,1.6774 l 21.05462,-3.98267 5.5409,12.20454 -29.8122,5.2067 a 9.42779,9.42779 0 0 1 -11.0636,-15.106 z"
     transform="translate(-228,-180.35704)"
     fill="#ffb8b8"
     id="path225"
     style="display:none" /><path
     d="m 500.57256,284.32827 0.27536,0.41722 -34.52582,22.74437 -58.25831,18.60329 a 3.5078,3.5078 0 0 0 -2.412,3.73827 l 1.2709,10.94662 a 3.50073,3.50073 0 0 0 4.21024,3.01849 l 54.82973,-11.75277 a 19.80593,19.80593 0 0 0 7.37148,-3.24548 L 512.122,301.20139 a 10.01984,10.01984 0 0 0 4.1584,-8.94749 9.9752,9.9752 0 0 0 -15.43253,-7.50841 z"
     transform="translate(-228,-180.35704)"
     fill="#cccccc"
     id="path227"
     style="display:none" /><path
     d="m 554.85319,558.46572 a 4.51847,4.51847 0 0 1 -4.1377,-2.70118 l -52.40991,-129.501 a 1.49982,1.49982 0 0 0 -2.80859,0.1582 L 452.73868,552.4955 a 4.50087,4.50087 0 0 1 -5.88159,2.89111 l -14.33838,-5.37695 a 4.48887,4.48887 0 0 1 -2.897,-3.70459 c -6.45044,-56.19238 49.80005,-198.02978 50.36914,-199.45556 l 0.15747,-0.395 51.2771,11.34277 0.10669,0.11621 c 20.45777,22.31787 37.27344,163.082 40.43677,191.07373 a 4.47857,4.47857 0 0 1 -2.97119,4.74658 l -12.65625,4.47608 a 4.45661,4.45661 0 0 1 -1.48825,0.25584 z"
     transform="translate(-228,-180.35704)"
     fill="#2f2e41"
     id="path229"
     style="display:none" /><path
     d="m 510.67252,362.36269 c -12.42358,0 -26.27441,-2.477 -30.53784,-12.70068 l -0.0981,-0.23487 0.13256,-0.21777 c 3.36524,-5.52149 7.813,-14.94043 5.42237,-16.7085 -4.70923,-3.48193 -6.99439,-9.21 -6.79151,-17.02539 0.44043,-16.96582 12.00049,-32.02881 28.76587,-37.48242 h 2.5e-4 a 127.64221,127.64221 0 0 1 14.26292,-3.67236 24.28073,24.28073 0 0 1 20.13257,4.97168 24.5264,24.5264 0 0 1 9.09594,18.8706 c 0.17578,18.13086 -2.61548,43.3833 -16.91211,60.72022 a 4.44777,4.44777 0 0 1 -2.633,1.53125 122.223,122.223 0 0 1 -20.83988,1.94824 z"
     transform="translate(-228,-180.35704)"
     fill="#cccccc"
     id="path231"
     style="display:none" /><path
     d="m 506.05111,361.68381 a 9.55593,9.55593 0 0 1 11.67847,-6.66417 9.40742,9.40742 0 0 1 1.44781,0.53625 l 15.98666,-14.54884 11.118,7.49027 -22.86179,20.23092 a 9.53906,9.53906 0 0 1 -10.81319,4.58661 9.39418,9.39418 0 0 1 -6.55596,-11.63104 z"
     transform="translate(-228,-180.35704)"
     fill="#ffb8b8"
     id="path233"
     style="display:none" /><path
     d="m 532.63175,361.86855 a 4.48762,4.48762 0 0 1 -2.84546,-1.01514 l -6.30444,-5.15185 a 4.49995,4.49995 0 0 1 0.10913,-7.05518 l 26.44165,-20.27978 a 1.50334,1.50334 0 0 0 0.28345,-2.09473 L 533.99577,304.6957 a 13.28507,13.28507 0 0 1 0.88745,-17.11426 v 0 a 13.24793,13.24793 0 0 1 17.88769,-1.43067 l 0.10327,0.10889 17.042,24.40235 a 15.19267,15.19267 0 0 1 -0.36011,24.18554 l -34.24561,26.13867 a 4.50736,4.50736 0 0 1 -2.67871,0.88233 z"
     transform="translate(-228,-180.35704)"
     fill="#cccccc"
     id="path235"
     style="display:none" /><path
     d="m 497.96524,237.39008 v -12.18615 l 21.75561,-9.5 20.74439,9.5 v 12.18615 a 2,2 0 0 1 -2,2 h -38.5 a 2,2 0 0 1 -2,-2 z"
     transform="translate(-228,-180.35704)"
     fill="#2f2e41"
     id="path237"
     style="display:none" /><path
     d="m 518.72211,208.25668 c -3.19879,-10.23852 3.51931,-21.97233 13.45085,-26.025 9.93154,-4.05267 21.81344,-1.21974 30.19368,5.47588 8.38024,6.69562 13.57963,16.72441 16.33459,27.09118 2.75496,10.36677 3.27788,21.17682 3.7865,31.89135 12.20223,2.24139 20.50283,16.71428 16.27576,28.37833 -4.22707,11.66405 -19.87268,17.45879 -30.67781,11.3623 -10.80513,-6.09649 -13.93468,-22.48461 -6.13639,-32.1337 a 26.37385,26.37385 0 0 0 -30.68776,-40.9097 c -6.0138,2.51492 -13.55953,-4.01939 -12.53942,-5.13064 z"
     fill="#2f2e41"
     id="path239"
     transform="translate(-228,-180.35704)"
     style="display:none" /><path
     d="m 381.61417,281.43984 a 104.44868,104.44868 0 0 1 -42.34814,-9.2749 4.47254,4.47254 0 0 1 -2.65186,-4.104 V 231.643 a 4.505,4.505 0 0 1 4.5,-4.5 h 81 a 4.50508,4.50508 0 0 1 4.5,4.5 v 36.418 a 4.47272,4.47272 0 0 1 -2.65185,4.104 v 0 a 104.44869,104.44869 0 0 1 -42.34815,9.27484 z"
     transform="translate(-228,-180.35704)"
     fill="#6c63ff"
     id="path241"
     style="display:none" /><path
     d="m 381.60306,251.93691 a 4.50521,4.50521 0 0 1 -1.74865,-0.35156 l -64.23194,-27.09961 a 4.49965,4.49965 0 0 1 0.15308,-8.353 L 380.00834,191.765 a 4.48365,4.48365 0 0 1 3.2113,0.007 l 63.37207,24.36767 a 4.50012,4.50012 0 0 1 0.15406,8.3379 L 383.373,251.57656 a 4.507,4.507 0 0 1 -1.76994,0.36035 z"
     transform="translate(-228,-180.35704)"
     fill="#6c63ff"
     id="path243"
     style="display:none" /><circle
     cx="116.11417"
     cy="88.285919"
     r="6"
     fill="#3f3d56"
     id="circle245"
     style="display:none" /><path
     d="M 446.96476,220.63082 383.59171,247.73 a 3.99993,3.99993 0 0 1 -3.12744,0.008 l -64.23193,-27.09882 a 3.92451,3.92451 0 0 1 -1.9126,-1.68109 3.997,3.997 0 0 0 1.9126,5.68109 l 64.23193,27.09882 a 3.99993,3.99993 0 0 0 3.12744,-0.008 l 63.37305,-27.09918 a 3.99713,3.99713 0 0 0 1.89453,-5.67322 3.92676,3.92676 0 0 1 -1.89453,1.67322 z"
     opacity="0.2"
     id="path247"
     transform="translate(-228,-180.35704)"
     style="display:none" /><path
     d="m 344.61832,268.61952 a 1,1 0 0 0 1,-1 V 234.1581 l 32.9812,-12.01514 a 1.000111,1.000111 0 0 0 0.0298,-2 l -32.9812,12.01514 a 1.96167,1.96167 0 0 0 -1.43335,0.57519 1.98569,1.98569 0 0 0 -0.59644,1.42481 v 33.46142 a 1.00005,1.00005 0 0 0 1,1 z"
     transform="translate(-228,-180.35704)"
     fill="#3f3d56"
     id="path249"
     style="display:none" /><g
     id="g4581"
     transform="matrix(0.88983364,0,0,0.88433348,65.834865,9.3541551)"><path
       d="m 651.61162,679.71942 c -5.12158,-7.17175 -12.05469,-12.41919 -20.771,-14.38311 -7.60058,-1.71259 -15.416,-1.42072 -23.14209,-1.36115 l -97.69238,0.7533 c -8.3667,0.0645 -16.38867,7.31311 -16,16 0.38574,8.61358 7.03174,16.06915 16,16 q 42.92578,-0.331 85.85108,-0.662 c 6.74658,-0.052 13.49707,-0.17371 20.24414,-0.15155 1.51513,0.005 3.02392,0.0848 4.53759,0.102 0.3667,0.004 0.63135,9.1e-4 0.81836,-0.007 0.0469,0.0143 0.0864,0.0273 0.14746,0.0441 0.78956,0.21679 1.59961,0.36621 2.394,0.57214 -0.27832,0.008 0.51513,0.5033 0.91357,0.671 0.0547,0.108 0.17139,0.29938 0.36621,0.59515 0.272,0.51 1.07715,2.05866 1.11035,2.00989 a 71.76183,71.76183 0 0 1 2.98682,9.39289 c 1.85938,7.04718 2.26807,8.52026 2.53565,15.13195 0.33837,8.352 7.11718,16.39783 16,16 8.3789,-0.3753 16.36279,-7.04236 16,-16 -0.61128,-15.09417 -3.2607,-32.04962 -12.29976,-44.70758 z"
       transform="translate(-229.66231,-151.4124)"
       fill="#e6e6e6"
       id="path4500" /><path
       d="m 515.74883,715.82494 c -1.835,-11.11963 -3.63477,-22.24637 -5.50537,-33.35952 -1.898,-11.27417 -5.77442,-21.59812 -14.54786,-28.9975 -2.34423,-1.97688 -4.7749,-3.82268 -7.21582,-5.66276 -0.85839,-0.6468 -1.71533,-1.29456 -2.56347,-1.95566 -0.0508,-0.0395 -0.083,-0.0643 -0.127,-0.0986 -0.0933,-0.0802 -0.20507,-0.17551 -0.35546,-0.30272 -3.65674,-3.0948 -7.19,-6.32723 -10.55567,-9.76318 q -4.48315,-4.57729 -8.57471,-9.545 -1.02246,-1.24071 -2.01855,-2.50366 c -0.11426,-0.14481 -0.72949,-0.93992 -1.13477,-1.45875 -0.377,-0.51927 -1.06591,-1.457 -1.18164,-1.62073 q -1.1638,-1.64569 -2.28613,-3.322 a 156.12618,156.12618 0 0 1 -13.187,-24.11549 q -0.54713,-1.25119 -1.06836,-2.51707 c -0.0933,-0.25754 -0.21387,-0.58834 -0.374,-1.02876 -0.74121,-2.03833 -1.481,-4.07418 -2.15869,-6.13665 q -2.15992,-6.57108 -3.71387,-13.3362 -0.76832,-3.34049 -1.3833,-6.7149 -0.31715,-1.73529 -0.59326,-3.47777 c -0.0303,-0.19285 -0.21,-1.44617 -0.31592,-2.15436 -0.0781,-0.71162 -0.22364,-1.97155 -0.24317,-2.16618 q -0.17577,-1.75646 -0.312,-3.51634 -0.30688,-3.96012 -0.415,-7.93346 -0.18456,-7.06137 0.25293,-14.12171 c 0.166,-2.64466 0.40235,-5.28245 0.69336,-7.91529 0.0176,-0.16178 0.0312,-0.29046 0.0439,-0.40642 0.0176,-0.11756 0.0381,-0.25112 0.0625,-0.41735 0.21533,-1.455 0.44189,-2.908 0.69531,-4.35644 a 159.29393,159.29393 0 0 1 3.73926,-16.31344 q 1.08765,-3.80858 2.36279,-7.55538 0.56836,-1.66325 1.17285,-3.31377 c -0.0264,0.071 1.18213,-3.01574 1.19824,-3.11945 4.79493,-11.32906 12.6377,-21.657 12.64844,-34.52643 0.007,-8.71332 -7.36426,-17.06006 -16,-16.65739 a 16.62541,16.62541 0 0 0 -16,16.65739 c 0,0.19565 -0.001,0.36258 -0.001,0.52461 -0.0806,0.27127 -0.14795,0.49761 -0.2085,0.69777 -0.93506,2.032 -2.08057,3.96285 -3.10693,5.94438 -2.81055,5.42345 -5.20948,11.02482 -7.48828,16.70842 a 159.82519,159.82519 0 0 0 -8.5293,28.62825 182.098,182.098 0 0 0 -0.96777,65.04019 c 6.20361,37.8128 26.66162,74.009 55.103,98.33928 2.46826,2.11134 4.99658,4.15171 7.54883,6.15089 1.05615,0.82714 2.12109,1.63909 3.19141,2.44577 0.50586,0.38139 2.60156,2.034 1.67968,1.23331 1.98243,1.69183 2.8169,2.5433 3.32618,3.78944 0.0737,0.2876 0.17431,0.67762 0.31054,1.21088 0.35889,1.40538 0.69971,2.80751 0.98291,4.23259 2.47559,12.45143 4.19629,25.11159 6.26416,37.64359 1.42139,8.61064 12.022,14.21487 19.68213,11.6342 8.91596,-3.00405 12.69774,-11.26437 11.17479,-20.49062 z"
       transform="translate(-229.66231,-151.4124)"
       fill="#e6e6e6"
       id="path4502" /><path
       d="m 653.23,748.12012 a 25.37427,25.37427 0 0 1 -25.43994,-25.25 v -18.25147 c -19.10889,2.13916 -84.54321,1.64356 -103.29981,-1.37011 v 18.8916 a 25.4409,25.4409 0 0 1 -50.88037,0 v -37.0918 a 163.30721,163.30721 0 0 1 -84,-142.38818 c 0,-49.83008 22.583,-96.31446 61.95874,-127.5337 a 164.07476,164.07476 0 0 1 89.32251,-35.17333 c 4.427,-0.34717 8.88086,-0.52295 13.23877,-0.52295 15.3523,0 84.61866,2.37158 101.99781,7.37158 L 695.75562,347.48 a 4.16,4.16 0 0 1 4.55,-0.90674 4.10044,4.10044 0 0 1 2.58448,3.84668 v 6.252 l 7.71631,-7.64209 a 4.1505,4.1505 0 0 1 4.54638,-0.90821 4.10219,4.10219 0 0 1 2.5874,3.84815 v 69.86474 a 162.75915,162.75915 0 0 1 -39.07031,267.86621 v 33.16944 A 25.37427,25.37427 0 0 1 653.23,748.12012 Z m -23.44,-45.76953 v 20.51953 a 23.44072,23.44072 0 0 0 46.87988,0 V 688.4375 l 0.571,-0.271 a 162.45628,162.45628 0 0 0 66.53076,-58.18164 160.32526,160.32526 0 0 0 -27.69922,-206.96 l -0.33228,-0.29834 v -70.75679 a 2.10314,2.10314 0 0 0 -1.34179,-1.99561 2.1492,2.1492 0 0 0 -2.38135,0.47315 l -11.127,11.0205 v -11.04785 a 2.10314,2.10314 0 0 0 -1.3418,-1.9956 2.15435,2.15435 0 0 0 -2.38525,0.47656 l -40.47632,40.16357 -0.5752,-0.18017 c -16.156,-5.05664 -86.51269,-7.4541 -101.98169,-7.4541 -4.30591,0 -8.70727,0.17382 -13.08154,0.51709 a 162.07488,162.07488 0 0 0 -88.23682,34.74609 c -38.89453,30.83789 -61.20166,76.751 -61.20166,125.9668 A 161.31464,161.31464 0 0 0 475.094,683.585 l 0.51587,0.28565 v 38.26953 a 23.441,23.441 0 0 0 46.88037,0 v -21.28569 l 1.18482,0.22266 c 16.85571,3.17139 87.83179,3.67139 104.98486,1.42139 z"
       fill="#3f3d56"
       id="path4504"
       transform="translate(-229.66231,-151.4124)" /><path
       d="m 517.66016,270.53 -110.74024,33.28 a 13.8823,13.8823 0 0 0 7.99024,26.59 l 96.90966,-29.13 2.03028,-0.61005 a 67.51666,67.51666 0 0 1 8.29,-29.86 6.16489,6.16489 0 0 0 -2,-0.52 6.367,6.367 0 0 0 -2.47994,0.25005 z"
       transform="translate(-229.66231,-151.4124)"
       fill="#6c63ff"
       id="path4506" /><path
       d="m 412.995,337.49524 a 7.01287,7.01287 0 0 1 -6.63781,-4.80127 l -6.92481,-20.896 a 6.99947,6.99947 0 0 1 4.44324,-8.84668 l 90.13122,-29.87012 a 6.99966,6.99966 0 0 1 8.84668,4.44189 l 6.92481,20.896 a 6.97565,6.97565 0 0 1 -4.19312,8.75928 q -0.12487,0.0469 -0.25219,0.0884 l -90.12915,29.86914 a 7.003,7.003 0 0 1 -2.20887,0.35938 z"
       transform="translate(-229.66231,-151.4124)"
       fill="#2f2e41"
       id="path4508" /><path
       d="m 581.79,233.42 a 70.03128,70.03128 0 0 0 -69.97022,67.85 c -0.02,0.71 -0.0298,1.43 -0.0298,2.15 a 70,70 0 1 0 70,-70 z m 0,138 a 68.071,68.071 0 0 1 -68,-68 q 0,-1.395 0.0601,-2.76 a 67.998,67.998 0 1 1 67.9399,70.76 z"
       transform="translate(-229.66231,-151.4124)"
       fill="#3f3d56"
       id="path4510" /><path
       d="m 640.79,303.42 a 59,59 0 0 1 -118,0 c 0,-1.87 0.0898,-3.71 0.25976,-5.53 A 59,59 0 0 1 640.79,303.42 Z"
       transform="translate(-229.66231,-151.4124)"
       fill="#e6e6e6"
       id="path4512" /><path
       d="m 599.35986,307.34 a 14.04753,14.04753 0 0 0 -5.46972,-4.33 53.13872,53.13872 0 0 0 -8.22022,-2.7 v -16.06 a 23.39587,23.39587 0 0 1 11.68994,5.33 l 3.26026,-6.95 a 21.56068,21.56068 0 0 0 -6.36035,-3.93 31.25931,31.25931 0 0 0 -8.06983,-2.07 v -8.14 h -7.5498 v 8.22 a 20.67243,20.67243 0 0 0 -8.25,2.77 16.3988,16.3988 0 0 0 -5.59034,5.48 13.77113,13.77113 0 0 0 -1.98974,7.29 12.46275,12.46275 0 0 0 2.29,7.8 14.51022,14.51022 0 0 0 5.6997,4.52 52.69206,52.69206 0 0 0 8.36036,2.77 v 15.39 A 24.98812,24.98812 0 0 1 565.25,317.18 l -3.25977,6.96 a 24.58042,24.58042 0 0 0 7.43995,4.22 34.16142,34.16142 0 0 0 9.21,1.92 v 8.07 h 7.5498 v -8.22 a 19.5385,19.5385 0 0 0 11.21,-5.14 13.58959,13.58959 0 0 0 4.18018,-10.1 12.0549,12.0549 0 0 0 -2.2203,-7.55 z m -20.1997,-8.73 a 14.49857,14.49857 0 0 1 -5.03028,-2.7 5.32046,5.32046 0 0 1 -1.77978,-4.18 6.72557,6.72557 0 0 1 1.81982,-4.81 9.20221,9.20221 0 0 1 4.99024,-2.59 z m 11.25,21.28 a 8.5575,8.5575 0 0 1 -4.74024,2.47 v -13.24 a 13.23964,13.23964 0 0 1 4.74024,2.37 4.65775,4.65775 0 0 1 1.62988,3.7 6.8039,6.8039 0 0 1 -1.62988,4.7 z"
       transform="translate(-229.66231,-151.4124)"
       fill="#6c63ff"
       id="path4514" /><path
       d="m 416.209,422.18421 a 7.02318,7.02318 0 0 1 -6.775,-5.21582 l -3.77014,-14.27 a 7.0039,7.0039 0 0 1 4.97509,-8.55127 l 118.94068,-31.42969 a 7.01537,7.01537 0 0 1 8.551,4.98535 l 3.19385,12.08984 -0.59839,0.0464 a 160.16254,160.16254 0 0 0 -84.10754,31.8711 l -0.17346,0.084 -38.46021,10.15967 a 6.96258,6.96258 0 0 1 -1.77588,0.23043 z"
       transform="translate(-229.66231,-151.4124)"
       fill="#2f2e41"
       id="path4516" /><path
       d="M 396.51011,492.6705 A 98.108,98.108 0 0 1 357.38794,477.87834 95.527,95.527 0 0 1 341.214,464.65 c -4.82786,-4.92434 -9.4465,-10.52122 -11.83781,-17.0792 a 25.299,25.299 0 0 1 0.33124,-18.7693 24.33352,24.33352 0 0 1 13.16876,-13.12553 c 5.98961,-2.38861 13.22619,-2.64412 19.05541,-0.0282 a 17.08926,17.08926 0 0 1 6.96433,5.60584 11.43493,11.43493 0 0 1 1.8103,3.75816 7.67372,7.67372 0 0 1 0.0904,3.75911 9.01634,9.01634 0 0 1 -4.77388,5.723 24.06819,24.06819 0 0 1 -8.1521,2.48626 c -2.86013,0.39 -6.96868,0.74485 -9.268,-1.551 a 4.66934,4.66934 0 0 1 -1.09261,-1.61079 3.1144,3.1144 0 0 1 -0.17238,-1.45807 c -0.0335,0.21724 0.13872,-0.47236 0.12891,-0.44486 -0.0364,0.10194 -0.19384,0.3504 0.03,-0.0314 a 3.39683,3.39683 0 0 1 0.23311,-0.363 c -0.076,0.0983 -0.24291,0.26227 0.0551,-0.0191 a 1.96186,1.96186 0 0 1 0.91427,-0.56441 c 0.13841,-0.0403 0.27883,-0.0724 0.41763,-0.11033 0.35277,-0.0964 -0.35161,0.005 0.009,-0.006 0.13927,-0.004 0.28021,-0.001 0.419,-0.007 0.354,-0.0159 -0.34927,-0.0965 -0.01,-0.0113 0.13173,0.0331 0.26222,0.0655 0.392,0.10635 0.28208,0.0889 -0.19974,-0.20693 -0.009,0.0145 0.224,0.25945 -0.23521,-0.25235 0.0194,-10e-4 a 4.6244,4.6244 0 0 1 0.35767,0.39431 2.35924,2.35924 0 0 0 3.315,0 2.39935,2.39935 0 0 0 0,-3.315 c -2.3114,-2.86535 -6.87707,-2.15735 -9.21528,0.26436 -2.982,3.08848 -1.80111,7.98318 1.09954,10.678 3.2837,3.05076 7.9344,3.26284 12.15834,2.75114 a 29.817,29.817 0 0 0 10.26918,-2.902 14.39829,14.39829 0 0 0 7.024,-7.58817 13.17381,13.17381 0 0 0 -1.05641,-10.76889 c -3.7293,-7.01118 -11.45152,-10.60575 -19.08437,-11.22837 a 29.81221,29.81221 0 0 0 -21.81879,7.16278 30.15422,30.15422 0 0 0 -9.88822,20.075 c -0.66626,7.996 2.43608,15.76128 6.95922,22.21432 a 84.62746,84.62746 0 0 0 16.77944,17.3533 102.47323,102.47323 0 0 0 42.812,20.19071 q 2.79237,0.57685 5.61474,0.98758 a 2.42141,2.42141 0 0 0 2.88342,-1.63715 2.36125,2.36125 0 0 0 -1.63716,-2.88343 z"
       transform="translate(-229.66231,-151.4124)"
       fill="#3f3d56"
       id="path4518" /><path
       d="m 619.8954,390.79425 q -30.6631,-0.43278 -61.133,1.55634 c -6.9433,0.45338 -12.95072,2.90742 -12.95072,7.03206 0,3.44855 5.95964,7.48858 12.95072,7.032 q 30.45443,-1.9887 61.133,-1.55633 c 16.67391,0.23535 16.66408,-13.82891 0,-14.06407 z"
       transform="translate(-229.66231,-151.4124)"
       fill="#cccccc"
       id="path4520" /><path
       d="m 589.68169,404.16175 c -2.20923,0 -54.10571,-0.0825 -54.10571,-7.251 0,-7.168 51.89648,-7.25049 54.10571,-7.25049 2.20923,0 54.10571,0.0825 54.10571,7.25049 0,7.16848 -51.89648,7.251 -54.10571,7.251 z m -52.07642,-7.251 c 1.42017,2.17334 20.49634,5.251 52.07642,5.251 31.58008,0 50.656,-3.07764 52.07641,-5.251 -1.42016,-2.17285 -20.49633,-5.25049 -52.07641,-5.25049 -31.58008,0 -50.65625,3.07766 -52.07642,5.25051 z"
       transform="translate(-229.66231,-151.4124)"
       fill="#3f3d56"
       id="path4522" /><path
       d="m 754.33555,592.61209 c 11.48831,-0.319 25.78612,-0.71776 36.801,-8.76407 a 28.26188,28.26188 0 0 0 11.12052,-21.10332 c 0.22483,-6.35459 -2.071,-11.90149 -6.46488,-15.61408 -5.75306,-4.86143 -14.154,-6.00169 -23.20738,-3.34108 l 9.38,-68.548 -6.88568,-0.94343 -11.02713,80.58689 5.75009,-2.63856 c 6.66637,-3.05766 15.81731,-4.61365 21.50378,0.19174 a 12.21541,12.21541 0 0 1 4.00576,10.06213 21.36089,21.36089 0 0 1 -8.275,15.7346 c -8.5719,6.26126 -19.96858,7.06894 -32.89451,7.43036 z"
       transform="translate(-229.66231,-151.4124)"
       fill="#3f3d56"
       id="path4524" /><rect
       x="468.20273"
       y="329.74081"
       width="37.432232"
       height="6.95017"
       fill="#3f3d56"
       id="rect4526" /><path
       d="m 433.14751,454.15 a 7.01243,7.01243 0 0 1 -6.904,-5.91748 L 423.95867,433.651 a 7.00763,7.00763 0 0 1 5.83215,-7.99951 L 551.32231,406.609 a 7.0074,7.0074 0 0 1 7.999,5.832 l 2.28467,14.582 a 7.00726,7.00726 0 0 1 -5.83179,7.99952 l -121.5315,19.042 a 7.09551,7.09551 0 0 1 -1.09518,0.0855 z"
       transform="translate(-229.66231,-151.4124)"
       fill="#2f2e41"
       id="path4528" /><circle
       cx="153.18938"
       cy="80.854721"
       r="51"
       fill="#6c63ff"
       id="circle4530" /><path
       d="m 411.727,245.46306 a 12.09515,12.09515 0 0 0 4.36685,-2.67614 8.13345,8.13345 0 0 0 2.25475,-6.483 5.47156,5.47156 0 0 0 -2.51209,-4.16412 c -1.8457,-1.13505 -4.28459,-1.09217 -6.74692,0.0493 l -0.2842,-19.90787 -1.99969,0.0285 0.334,23.40381 1.52231,-0.99844 c 1.76529,-1.15588 4.30177,-1.99407 6.12663,-0.87157 a 3.51373,3.51373 0 0 1 1.57291,2.68953 6.14619,6.14619 0 0 1 -1.67626,4.83366 c -2.16794,2.15111 -5.37684,2.87189 -9.03924,3.53112 l 0.35442,1.96814 a 32.96256,32.96256 0 0 0 5.72653,-1.40288 z"
       transform="translate(-229.66231,-151.4124)"
       fill="#2f2e41"
       id="path4532" /><rect
       x="418.83798"
       y="211.67905"
       width="10.77167"
       height="1.99975"
       transform="rotate(-8.61162,-696.10362,1662.1098)"
       fill="#2f2e41"
       id="rect4534" /><rect
       x="385.22113"
       y="216.76898"
       width="10.77167"
       height="1.99975"
       transform="rotate(-8.61162,-729.72044,1667.1997)"
       fill="#2f2e41"
       id="rect4536" /><path
       d="m 416.55474,453.25843 a 9.03041,9.03041 0 0 1 -8.43445,-5.855 L 372.9572,353.2345 a 46.53156,46.53156 0 0 1 27.28418,-59.80225 L 428.83306,282.756 a 8.95769,8.95769 0 0 1 6.87805,0.23877 8.83186,8.83186 0 0 1 4.67541,4.98584 L 505.523,410.96448 a 9.0015,9.0015 0 0 1 -5.25659,11.63818 L 419.7,452.68665 a 8.97612,8.97612 0 0 1 -3.14526,0.57178 z"
       transform="translate(-229.66231,-151.4124)"
       fill="#2f2e41"
       id="path4538" /><path
       d="m 420.15839,285.99487 64.629,86.42566 -43.7316,-85.51853 a 8.079,8.079 0 0 0 -10.349,-4.846 z"
       transform="translate(-229.66231,-151.4124)"
       fill="#e6e6e6"
       id="path4540" /><path
       d="m 522.49036,351.63 -115.39525,-7.43312 a 13.879441,13.879441 0 1 1 1.78425,-27.70148 l 115.3953,7.43258 a 6.49946,6.49946 0 0 1 6.06882,6.90407 l -0.9485,14.72919 a 6.50056,6.50056 0 0 1 -6.90462,6.06876 z"
       transform="translate(-229.66231,-151.4124)"
       fill="#6c63ff"
       id="path4542" /><path
       d="m 491.65508,356.39514 q -0.22852,0 -0.45825,-0.0146 h -2.5e-4 l -94.7561,-6.10352 a 6.99919,6.99919 0 0 1 -6.53565,-7.43506 l 1.62036,-25.1582 a 6.99967,6.99967 0 0 1 7.43592,-6.53516 l 94.756,6.103 a 7.00755,7.00755 0 0 1 6.5354,7.43506 l -1.62012,25.15869 a 7.01886,7.01886 0 0 1 -4.54614,6.11084 6.926,6.926 0 0 1 -2.43117,0.43899 z"
       transform="translate(-229.66231,-151.4124)"
       fill="#2f2e41"
       id="path4544" /><path
       d="m 382.26706,198.35294 c 6.70923,-5.77031 15.92258,-0.60839 23.61673,-1.512 7.36114,-0.86455 13.17369,-7.46753 14.65857,-14.48237 1.73235,-8.184 -2.51553,-16.38319 -8.77663,-21.48577 -6.85745,-5.58858 -15.95214,-7.19293 -24.57042,-6.159 -9.87767,1.185 -18.91123,5.78935 -27.017,11.35854 a 121.85037,121.85037 0 0 0 -21.44164,18.16917 c -5.75111,6.35166 -10.62377,13.9227 -12.17974,22.46976 -1.414,7.76751 -0.33431,16.375 4.2575,22.95514 a 24.20528,24.20528 0 0 0 9.47417,7.80529 c 3.93743,1.93344 8.13754,3.31565 11.95217,5.50169 5.76775,3.30532 11.37351,10.15883 9.56677,17.29094 a 9.79281,9.79281 0 0 1 -2.226,4.19 c -1.29065,1.43275 -3.6187,-0.46055 -2.32465,-1.89708 2.27282,-2.52305 2.18331,-5.88792 0.97206,-8.90023 a 16.27233,16.27233 0 0 0 -7.23346,-7.95427 c -3.993,-2.28294 -8.40146,-3.6921 -12.494,-5.77156 a 27.02254,27.02254 0 0 1 -9.91143,-8.21385 c -4.89822,-6.807 -6.36338,-15.66585 -5.2525,-23.861 1.20214,-8.86841 5.75869,-16.9272 11.47065,-23.68045 6.21621,-7.34944 13.8519,-13.57054 21.65246,-19.15936 8.37006,-5.99685 17.61734,-11.06678 27.85008,-12.90049 8.87016,-1.58954 18.48474,-0.61091 26.24132,4.22294 7.24026,4.51209 12.79232,12.27377 13.34449,20.9467 a 22.23537,22.23537 0 0 1 -10.37627,19.94206 19.101,19.101 0 0 1 -11.41,2.64333 c -4.2616,-0.27279 -8.52728,-1.57778 -12.81609,-1.21548 a 8.94077,8.94077 0 0 0 -5.26807,2.1285 c -1.46588,1.26074 -3.21292,-1.1807 -1.75908,-2.43109 z"
       transform="translate(-229.66231,-151.4124)"
       fill="#2f2e41"
       id="path4546" /><path
       d="M 969.147,748.5876 H 230.853 a 1.19069,1.19069 0 0 1 0,-2.38137 h 738.294 a 1.190685,1.190685 0 0 1 0,2.38137 z"
       transform="translate(-229.66231,-151.4124)"
       fill="#3f3d56"
       id="path4548" /></g></svg>
